# Blender 4.4.0
# www.blender.org
o Flat
v 0.189050 -0.248750 -0.189050
v 0.189050 -0.189050 -0.248750
v 0.248750 -0.189050 -0.189050
v 0.189050 -0.240774 -0.218861
v 0.218861 -0.240774 -0.189050
v 0.217599 -0.233027 -0.217599
v 0.218861 -0.189050 -0.240774
v 0.189050 -0.218861 -0.240774
v 0.217599 -0.217599 -0.233027
v 0.240774 -0.218861 -0.189050
v 0.240774 -0.189050 -0.218861
v 0.233027 -0.217599 -0.217599
v 0.189050 0.189050 -0.248750
v 0.189050 0.248750 -0.189050
v 0.248750 0.189050 -0.189050
v 0.189050 0.218861 -0.240774
v 0.218861 0.189050 -0.240774
v 0.217599 0.217599 -0.233027
v 0.218861 0.240774 -0.189050
v 0.189050 0.240774 -0.218861
v 0.217599 0.233027 -0.217599
v 0.240774 0.189050 -0.218861
v 0.240774 0.218861 -0.189050
v 0.233027 0.217599 -0.217599
v 0.189050 -0.248750 0.189050
v 0.248750 -0.189050 0.189050
v 0.189050 -0.189050 0.248750
v 0.218861 -0.240774 0.189050
v 0.189050 -0.240774 0.218861
v 0.217599 -0.233027 0.217599
v 0.240774 -0.189050 0.218861
v 0.240774 -0.218861 0.189050
v 0.233027 -0.217599 0.217599
v 0.189050 -0.218861 0.240774
v 0.218861 -0.189050 0.240774
v 0.217599 -0.217599 0.233027
v 0.189050 0.248750 0.189050
v 0.189050 0.189050 0.248750
v 0.248750 0.189050 0.189050
v 0.189050 0.240774 0.218861
v 0.218861 0.240774 0.189050
v 0.217599 0.233027 0.217599
v 0.218861 0.189050 0.240774
v 0.189050 0.218861 0.240774
v 0.217599 0.217599 0.233027
v 0.240774 0.218861 0.189050
v 0.240774 0.189050 0.218861
v 0.233027 0.217599 0.217599
v -0.189050 -0.248750 -0.189050
v -0.248750 -0.189050 -0.189050
v -0.189050 -0.189050 -0.248750
v -0.218861 -0.240774 -0.189050
v -0.189050 -0.240774 -0.218861
v -0.217599 -0.233027 -0.217599
v -0.240774 -0.189050 -0.218861
v -0.240774 -0.218861 -0.189050
v -0.233027 -0.217599 -0.217599
v -0.189050 -0.218861 -0.240774
v -0.218861 -0.189050 -0.240774
v -0.217599 -0.217599 -0.233027
v -0.189050 0.248750 -0.189050
v -0.189050 0.189050 -0.248750
v -0.248750 0.189050 -0.189050
v -0.189050 0.240774 -0.218861
v -0.218861 0.240774 -0.189050
v -0.217599 0.233027 -0.217599
v -0.218861 0.189050 -0.240774
v -0.189050 0.218861 -0.240774
v -0.217599 0.217599 -0.233027
v -0.240774 0.218861 -0.189050
v -0.240774 0.189050 -0.218861
v -0.233027 0.217599 -0.217599
v -0.189050 -0.248750 0.189050
v -0.189050 -0.189050 0.248750
v -0.248750 -0.189050 0.189050
v -0.189050 -0.240774 0.218861
v -0.218861 -0.240774 0.189050
v -0.217599 -0.233027 0.217599
v -0.218861 -0.189050 0.240774
v -0.189050 -0.218861 0.240774
v -0.217599 -0.217599 0.233027
v -0.240774 -0.218861 0.189050
v -0.240774 -0.189050 0.218861
v -0.233027 -0.217599 0.217599
v -0.189050 0.248750 0.189050
v -0.248750 0.189050 0.189050
v -0.189050 0.189050 0.248750
v -0.218861 0.240774 0.189050
v -0.189050 0.240774 0.218861
v -0.217599 0.233027 0.217599
v -0.240774 0.189050 0.218861
v -0.240774 0.218861 0.189050
v -0.233027 0.217599 0.217599
v -0.189050 0.218861 0.240774
v -0.218861 0.189050 0.240774
v -0.217599 0.217599 0.233027
vn -0.0000 -0.0000 -1.0000
vn -1.0000 -0.0000 -0.0000
vn -0.0000 1.0000 -0.0000
vn 1.0000 -0.0000 -0.0000
vn -0.0000 -0.0000 1.0000
vn -0.0000 -1.0000 -0.0000
vn -0.0000 -0.8661 -0.4998
vn 0.4473 -0.7745 -0.4473
vn 0.4998 -0.8661 -0.0000
vn -0.0000 -0.8661 -0.4999
vn 0.0001 -0.4999 -0.8661
vn 0.4473 -0.4474 -0.7744
vn 0.4473 -0.7745 -0.4474
vn 0.4998 -0.0000 -0.8661
vn 0.4473 -0.4473 -0.7745
vn -0.0000 -0.4998 -0.8661
vn 0.4999 -0.0000 -0.8661
vn 0.8661 -0.0001 -0.4999
vn 0.7744 -0.4473 -0.4474
vn 0.4474 -0.4473 -0.7745
vn 0.8661 -0.4998 -0.0000
vn 0.7745 -0.4473 -0.4473
vn 0.8661 -0.0000 -0.4998
vn 0.8661 -0.4999 -0.0000
vn 0.4999 -0.8661 -0.0001
vn 0.4474 -0.7744 -0.4473
vn 0.7745 -0.4474 -0.4473
vn 0.4473 -0.7744 -0.4474
vn 0.4474 -0.4473 -0.7744
vn 0.7744 -0.4474 -0.4473
vn -0.0000 0.4998 -0.8661
vn 0.4473 0.4473 -0.7745
vn -0.0000 0.4999 -0.8661
vn 0.0001 0.8661 -0.4999
vn 0.4473 0.7744 -0.4474
vn 0.4473 0.4474 -0.7745
vn 0.4998 0.8661 -0.0000
vn 0.4473 0.7745 -0.4473
vn -0.0000 0.8661 -0.4998
vn 0.4999 0.8661 -0.0000
vn 0.8661 0.4999 -0.0001
vn 0.7744 0.4474 -0.4473
vn 0.4474 0.7745 -0.4473
vn 0.7745 0.4473 -0.4473
vn 0.8661 0.4998 -0.0000
vn 0.8661 -0.0000 -0.4999
vn 0.4999 0.0001 -0.8661
vn 0.4474 0.4473 -0.7744
vn 0.7745 0.4473 -0.4474
vn 0.4473 0.4474 -0.7744
vn 0.4474 0.7744 -0.4473
vn 0.7744 0.4473 -0.4474
vn 0.4473 -0.7745 0.4473
vn -0.0000 -0.8661 0.4998
vn 0.4999 -0.8661 -0.0000
vn 0.8661 -0.4999 0.0001
vn 0.7744 -0.4474 0.4473
vn 0.4474 -0.7745 0.4473
vn 0.8661 -0.0000 0.4998
vn 0.7745 -0.4473 0.4473
vn 0.8661 -0.0000 0.4999
vn 0.4999 -0.0001 0.8661
vn 0.4474 -0.4473 0.7744
vn 0.7745 -0.4473 0.4474
vn -0.0000 -0.4998 0.8661
vn 0.4473 -0.4473 0.7745
vn 0.4998 -0.0000 0.8661
vn -0.0000 -0.4999 0.8661
vn 0.0001 -0.8661 0.4999
vn 0.4473 -0.7744 0.4474
vn 0.4473 -0.4474 0.7745
vn 0.4474 -0.7744 0.4473
vn 0.7744 -0.4473 0.4474
vn 0.4473 -0.4474 0.7744
vn -0.0000 0.8661 0.4998
vn 0.4473 0.7745 0.4473
vn -0.0000 0.8661 0.4999
vn 0.0001 0.4999 0.8661
vn 0.4473 0.4474 0.7744
vn 0.4473 0.7745 0.4474
vn 0.4473 0.4473 0.7745
vn -0.0000 0.4998 0.8661
vn 0.4999 -0.0000 0.8661
vn 0.8661 0.0001 0.4999
vn 0.7744 0.4473 0.4474
vn 0.4474 0.4473 0.7745
vn 0.7745 0.4473 0.4473
vn 0.8661 0.4999 -0.0000
vn 0.4999 0.8661 0.0001
vn 0.4474 0.7744 0.4473
vn 0.7745 0.4474 0.4473
vn 0.4473 0.7744 0.4474
vn 0.4474 0.4473 0.7744
vn 0.7744 0.4474 0.4473
vn -0.4998 -0.8661 -0.0000
vn -0.4473 -0.7745 -0.4473
vn -0.4999 -0.8661 -0.0000
vn -0.8661 -0.4999 -0.0001
vn -0.7744 -0.4474 -0.4473
vn -0.4474 -0.7745 -0.4473
vn -0.8661 -0.0000 -0.4998
vn -0.7745 -0.4473 -0.4473
vn -0.8661 -0.4998 -0.0000
vn -0.8661 -0.0000 -0.4999
vn -0.4999 -0.0001 -0.8661
vn -0.4474 -0.4473 -0.7744
vn -0.7745 -0.4473 -0.4474
vn -0.4473 -0.4473 -0.7745
vn -0.4998 -0.0000 -0.8661
vn -0.0000 -0.4999 -0.8661
vn -0.0001 -0.8661 -0.4999
vn -0.4473 -0.7744 -0.4474
vn -0.4473 -0.4474 -0.7745
vn -0.4474 -0.7744 -0.4473
vn -0.7744 -0.4473 -0.4474
vn -0.4473 -0.4474 -0.7744
vn -0.4473 0.7745 -0.4473
vn -0.4998 0.8661 -0.0000
vn -0.0000 0.8661 -0.4999
vn -0.0001 0.4999 -0.8661
vn -0.4473 0.4474 -0.7744
vn -0.4473 0.7745 -0.4474
vn -0.4473 0.4473 -0.7745
vn -0.4999 -0.0000 -0.8661
vn -0.8661 0.0001 -0.4999
vn -0.7744 0.4473 -0.4474
vn -0.4474 0.4473 -0.7745
vn -0.8661 0.4998 -0.0000
vn -0.7745 0.4473 -0.4473
vn -0.8661 0.4999 -0.0000
vn -0.4999 0.8661 -0.0001
vn -0.4474 0.7744 -0.4473
vn -0.7745 0.4474 -0.4473
vn -0.4473 0.7744 -0.4474
vn -0.4474 0.4473 -0.7744
vn -0.7744 0.4474 -0.4473
vn -0.4473 -0.7745 0.4473
vn -0.0000 -0.8661 0.4999
vn -0.0001 -0.4999 0.8661
vn -0.4473 -0.4474 0.7744
vn -0.4473 -0.7745 0.4474
vn -0.4998 -0.0000 0.8661
vn -0.4473 -0.4473 0.7745
vn -0.4999 -0.0000 0.8661
vn -0.8661 -0.0001 0.4999
vn -0.7744 -0.4473 0.4474
vn -0.4474 -0.4473 0.7745
vn -0.7745 -0.4473 0.4473
vn -0.8661 -0.0000 0.4998
vn -0.8661 -0.4999 -0.0000
vn -0.4999 -0.8661 0.0001
vn -0.4474 -0.7744 0.4473
vn -0.7745 -0.4474 0.4473
vn -0.4473 -0.7744 0.4474
vn -0.4474 -0.4473 0.7744
vn -0.7744 -0.4474 0.4473
vn -0.4473 0.7745 0.4473
vn -0.4999 0.8661 -0.0000
vn -0.8661 0.4999 0.0001
vn -0.7744 0.4474 0.4473
vn -0.4474 0.7745 0.4473
vn -0.7745 0.4473 0.4473
vn -0.8661 -0.0000 0.4999
vn -0.4999 0.0001 0.8661
vn -0.4474 0.4473 0.7744
vn -0.7745 0.4473 0.4474
vn -0.4473 0.4473 0.7745
vn -0.0000 0.4999 0.8661
vn -0.0001 0.8661 0.4999
vn -0.4473 0.7744 0.4474
vn -0.4473 0.4474 0.7745
vn -0.4474 0.7744 0.4473
vn -0.7744 0.4473 0.4474
vn -0.4473 0.4474 0.7744
vn 0.0001 -1.0000 -0.0000
vn 1.0000 -0.0001 -0.0000
vn 0.0001 -0.0000 -1.0000
vn 1.0000 -0.0000 -0.0001
vn 0.0001 1.0000 -0.0000
vn 1.0000 0.0001 -0.0000
vn 0.0001 -0.0000 1.0000
vn 1.0000 -0.0000 0.0001
vn -0.0000 -1.0000 0.0001
vn -0.0000 -0.0001 1.0000
vn -0.0000 1.0000 0.0001
vn -0.0000 0.0001 1.0000
vn -1.0000 -0.0000 0.0001
vn -0.0001 -0.0000 1.0000
vn -0.0001 -1.0000 -0.0000
vn -1.0000 -0.0001 -0.0000
vn -0.0001 1.0000 -0.0000
vn -1.0000 0.0001 -0.0000
vn -0.0001 -0.0000 -1.0000
vn -1.0000 -0.0000 -0.0001
vn -0.0000 -1.0000 -0.0001
vn -0.0000 -0.0001 -1.0000
vn -0.0000 1.0000 -0.0001
vn -0.0000 0.0001 -1.0000
vt 0.405000 0.780000
vt 0.595000 0.780000
vt 0.595000 0.970000
vt 0.405000 0.970000
vt 0.405000 0.530000
vt 0.595000 0.530000
vt 0.595000 0.720000
vt 0.405000 0.720000
vt 0.655000 0.530000
vt 0.845000 0.530000
vt 0.845000 0.720000
vt 0.655000 0.720000
vt 0.405000 0.030000
vt 0.595000 0.030000
vt 0.595000 0.220000
vt 0.405000 0.220000
vt 0.405000 0.280000
vt 0.595000 0.280000
vt 0.595000 0.470000
vt 0.405000 0.470000
vt 0.155000 0.720000
vt 0.155000 0.734980
vt 0.140654 0.734346
vt 0.140020 0.720000
vt 0.155000 0.750000
vt 0.140654 0.750000
vt 0.405000 1.000000
vt 0.375000 0.984346
vt 0.375000 0.970000
vt 0.405000 0.000000
vt 0.405000 0.015020
vt 0.375000 0.015654
vt 0.375000 0.000000
vt 0.375000 0.030000
vt 0.125000 0.720000
vt 0.125000 0.734346
vt 0.609980 0.970000
vt 0.609346 1.000000
vt 0.595000 1.000000
vt 0.625000 0.970000
vt 0.625000 1.000000
vt 0.875000 0.720000
vt 0.875000 0.734346
vt 0.845000 0.750000
vt 0.625000 0.030000
vt 0.609980 0.030000
vt 0.609346 0.015654
vt 0.625000 0.015654
vt 0.595000 0.015020
vt 0.595000 0.000000
vt 0.609346 0.000000
vt 0.155000 0.530000
vt 0.140020 0.530000
vt 0.140654 0.515654
vt 0.155000 0.515020
vt 0.125000 0.530000
vt 0.125000 0.515654
vt 0.405000 0.234980
vt 0.375000 0.234346
vt 0.375000 0.220000
vt 0.405000 0.265020
vt 0.375000 0.265654
vt 0.375000 0.280000
vt 0.155000 0.500000
vt 0.140654 0.500000
vt 0.845000 0.500000
vt 0.875000 0.515654
vt 0.875000 0.530000
vt 0.625000 0.280000
vt 0.609980 0.280000
vt 0.609346 0.265654
vt 0.625000 0.250000
vt 0.595000 0.265020
vt 0.595000 0.234980
vt 0.609346 0.234346
vt 0.609980 0.220000
vt 0.625000 0.220000
vt 0.625000 0.234346
vt 0.609346 0.242099
vt 0.345000 0.720000
vt 0.359980 0.720000
vt 0.359346 0.734346
vt 0.345000 0.734980
vt 0.390020 0.720000
vt 0.390654 0.734346
vt 0.405000 0.734980
vt 0.405000 0.765020
vt 0.375000 0.765654
vt 0.375000 0.780000
vt 0.345000 0.750000
vt 0.359346 0.750000
vt 0.367099 0.734346
vt 0.655000 0.750000
vt 0.640654 0.750000
vt 0.640020 0.720000
vt 0.625000 0.780000
vt 0.609980 0.780000
vt 0.609346 0.765654
vt 0.625000 0.765654
vt 0.595000 0.765020
vt 0.595000 0.734980
vt 0.609346 0.734346
vt 0.609980 0.720000
vt 0.609346 0.757901
vt 0.345000 0.530000
vt 0.345000 0.515020
vt 0.359346 0.515654
vt 0.359980 0.530000
vt 0.345000 0.500000
vt 0.359346 0.500000
vt 0.405000 0.484980
vt 0.375000 0.484346
vt 0.375000 0.470000
vt 0.405000 0.515020
vt 0.390654 0.515654
vt 0.390020 0.530000
vt 0.367099 0.515654
vt 0.640020 0.530000
vt 0.640654 0.500000
vt 0.655000 0.500000
vt 0.609980 0.530000
vt 0.609346 0.515654
vt 0.595000 0.515020
vt 0.595000 0.484980
vt 0.609346 0.484346
vt 0.609980 0.470000
vt 0.625000 0.470000
vt 0.625000 0.484346
vt 0.609346 0.492099
s 0
f 51/1/1 62/2/1 13/3/1 2/4/1
f 75/5/2 86/6/2 63/7/2 50/8/2
f 85/9/3 37/10/3 14/11/3 61/12/3
f 3/13/4 15/14/4 39/15/4 26/16/4
f 27/17/5 38/18/5 87/19/5 74/20/5
f 1/21/6 4/22/7 6/23/8 5/24/9
f 4/22/10 8/25/11 9/26/12 6/23/13
f 2/4/1 7/27/14 9/28/15 8/29/16
f 7/30/17 11/31/18 12/32/19 9/33/20
f 3/13/4 10/34/21 12/32/22 11/31/23
f 10/35/24 5/24/25 6/23/26 12/36/27
f 6/23/28 9/26/29 12/36/30
f 13/3/1 16/37/31 18/38/32 17/39/14
f 16/37/33 20/40/34 21/41/35 18/38/36
f 14/11/3 19/42/37 21/43/38 20/44/39
f 19/45/40 23/46/41 24/47/42 21/48/43
f 15/14/4 22/49/23 24/47/44 23/46/45
f 22/49/46 17/50/47 18/51/48 24/47/49
f 18/51/50 21/48/51 24/47/52
f 25/52/6 28/53/9 30/54/53 29/55/54
f 28/53/55 32/56/56 33/57/57 30/54/58
f 26/16/4 31/58/59 33/59/60 32/60/21
f 31/58/61 35/61/62 36/62/63 33/59/64
f 27/17/5 34/63/65 36/62/66 35/61/67
f 34/64/68 29/55/69 30/54/70 36/65/71
f 30/54/72 33/57/73 36/65/74
f 37/10/3 40/66/75 42/67/76 41/68/37
f 40/69/77 44/70/78 45/71/79 42/72/80
f 38/18/5 43/73/67 45/71/81 44/70/82
f 43/73/83 47/74/84 48/75/85 45/71/86
f 39/15/4 46/76/45 48/75/87 47/74/59
f 46/76/88 41/77/89 42/78/90 48/75/91
f 42/78/92 45/79/93 48/75/94
f 49/80/6 52/81/95 54/82/96 53/83/7
f 52/81/97 56/84/98 57/85/99 54/82/100
f 50/8/2 55/86/101 57/85/102 56/84/103
f 55/86/104 59/87/105 60/88/106 57/85/107
f 51/1/1 58/89/16 60/88/108 59/87/109
f 58/90/110 53/83/111 54/82/112 60/91/113
f 54/82/114 57/92/115 60/91/116
f 61/12/3 64/93/39 66/94/117 65/95/118
f 64/96/119 68/97/120 69/98/121 66/99/122
f 62/2/1 67/100/109 69/98/123 68/97/31
f 67/100/124 71/101/125 72/102/126 69/98/127
f 63/7/2 70/103/128 72/102/129 71/101/101
f 70/103/130 65/95/131 66/94/132 72/102/133
f 66/99/134 69/98/135 72/104/136
f 73/105/6 76/106/54 78/107/137 77/108/95
f 76/106/138 80/109/139 81/110/140 78/107/141
f 74/20/5 79/111/142 81/112/143 80/113/65
f 79/111/144 83/114/145 84/115/146 81/112/147
f 75/5/2 82/116/103 84/115/148 83/114/149
f 82/116/150 77/108/151 78/107/152 84/115/153
f 78/107/154 81/110/155 84/117/156
f 85/9/3 88/118/118 90/119/157 89/120/75
f 88/118/158 92/121/159 93/122/160 90/119/161
f 86/6/2 91/123/149 93/122/162 92/121/128
f 91/123/163 95/124/164 96/125/165 93/122/166
f 87/19/5 94/126/82 96/125/167 95/124/142
f 94/126/168 89/127/169 90/128/170 96/125/171
f 90/128/172 93/129/173 96/125/174
f 25/52/175 1/21/175 5/24/9 28/53/9
f 28/53/55 5/24/55 10/35/24 32/56/24
f 32/60/21 10/34/21 3/13/176 26/16/176
f 2/4/177 13/3/177 17/39/14 7/27/14
f 7/30/17 17/50/17 22/49/46 11/31/46
f 11/31/23 22/49/23 15/14/178 3/13/178
f 14/11/179 37/10/179 41/68/37 19/42/37
f 19/45/40 41/77/40 46/76/88 23/46/88
f 23/46/45 46/76/45 39/15/180 15/14/180
f 38/18/181 27/17/181 35/61/67 43/73/67
f 43/73/83 35/61/83 31/58/61 47/74/61
f 47/74/59 31/58/59 26/16/182 39/15/182
f 73/105/183 25/52/183 29/55/54 76/106/54
f 76/106/138 29/55/138 34/64/68 80/109/68
f 80/113/65 34/63/65 27/17/184 74/20/184
f 37/10/185 85/9/185 89/120/75 40/66/75
f 40/69/77 89/127/77 94/126/168 44/70/168
f 44/70/82 94/126/82 87/19/186 38/18/186
f 86/6/187 75/5/187 83/114/149 91/123/149
f 91/123/163 83/114/163 79/111/144 95/124/144
f 95/124/142 79/111/142 74/20/188 87/19/188
f 49/80/189 73/105/189 77/108/95 52/81/95
f 52/81/97 77/108/97 82/116/150 56/84/150
f 56/84/103 82/116/103 75/5/190 50/8/190
f 85/9/191 61/12/191 65/95/118 88/118/118
f 88/118/158 65/95/158 70/103/130 92/121/130
f 92/121/128 70/103/128 63/7/192 86/6/192
f 62/2/193 51/1/193 59/87/109 67/100/109
f 67/100/124 59/87/124 55/86/104 71/101/104
f 71/101/101 55/86/101 50/8/194 63/7/194
f 1/21/195 49/80/195 53/83/7 4/22/7
f 4/22/10 53/83/10 58/90/110 8/25/110
f 8/29/16 58/89/16 51/1/196 2/4/196
f 61/12/197 14/11/197 20/44/39 64/93/39
f 64/96/119 20/40/119 16/37/33 68/97/33
f 68/97/31 16/37/31 13/3/198 62/2/198
f 25/52/6 73/105/6 49/80/6 1/21/6
