# Blender 4.4.0
# www.blender.org
o Trigonal
v 0.094923 0.130875 0.243018
v 0.208325 0.116090 0.125235
v 0.139556 0.239286 0.125235
v 0.180611 0.118786 0.221164
v 0.218678 0.207304 0.212041
v 0.238357 0.218933 0.124424
v 0.127642 0.214513 0.221164
v -0.094923 0.130875 0.243018
v -0.139556 0.239286 0.125235
v -0.208325 0.116090 0.125235
v -0.127642 0.214513 0.221164
v -0.218678 0.207304 0.212041
v -0.238357 0.218933 0.124424
v -0.180611 0.118786 0.221164
v 0.064476 -0.159992 0.125235
v 0.000000 -0.051068 0.243018
v -0.064476 -0.159992 0.125235
v 0.050267 -0.130162 0.221164
v 0.000000 -0.215238 0.212041
v -0.050267 -0.130162 0.221164
v -0.000000 -0.244611 0.124424
v 0.208325 0.116090 -0.125235
v 0.094923 0.130875 -0.243018
v 0.139556 0.239286 -0.125235
v 0.180611 0.118786 -0.221164
v 0.218678 0.207304 -0.212041
v 0.127642 0.214513 -0.221164
v 0.238357 0.218933 -0.124424
v -0.094923 0.130875 -0.243018
v -0.208325 0.116090 -0.125235
v -0.139556 0.239286 -0.125235
v -0.180611 0.118786 -0.221164
v -0.218678 0.207304 -0.212041
v -0.238357 0.218933 -0.124424
v -0.127642 0.214513 -0.221164
v 0.064476 -0.159992 -0.125235
v -0.064476 -0.159992 -0.125235
v -0.000000 -0.051068 -0.243018
v -0.000000 -0.244611 -0.124424
v 0.000000 -0.215237 -0.212041
v -0.050267 -0.130162 -0.221164
v 0.050267 -0.130162 -0.221164
v 0.117008 0.187572 0.235304
v 0.152064 0.122980 0.235304
v 0.212448 0.185663 0.217346
v 0.196747 0.211677 0.217346
v 0.198080 0.116816 0.193829
v 0.239383 0.190881 0.124728
v 0.229818 0.213887 0.190845
v 0.213929 0.232361 0.124728
v 0.134831 0.230283 0.193829
v -0.152064 0.122980 0.235304
v -0.117008 0.187572 0.235304
v -0.196747 0.211677 0.217346
v -0.212448 0.185663 0.217346
v -0.134831 0.230283 0.193829
v -0.213929 0.232361 0.124728
v -0.229818 0.213887 0.190845
v -0.239383 0.190881 0.124728
v -0.198080 0.116816 0.193829
v 0.021698 -0.229188 0.124728
v 0.059485 -0.148399 0.193829
v 0.013629 -0.196180 0.217346
v -0.000000 -0.231558 0.190845
v 0.033920 -0.103056 0.235304
v -0.033920 -0.103056 0.235304
v -0.013629 -0.196180 0.217346
v -0.059485 -0.148399 0.193829
v -0.021698 -0.229188 0.124728
v 0.239383 0.190881 -0.124728
v 0.198080 0.116816 -0.193829
v 0.212448 0.185663 -0.217346
v 0.229818 0.213887 -0.190845
v 0.152064 0.122980 -0.235304
v 0.117008 0.187572 -0.235304
v 0.196747 0.211677 -0.217346
v 0.134831 0.230283 -0.193829
v 0.213929 0.232361 -0.124728
v -0.117008 0.187572 -0.235304
v -0.152064 0.122980 -0.235304
v -0.212448 0.185663 -0.217346
v -0.196747 0.211677 -0.217346
v -0.198080 0.116816 -0.193829
v -0.239383 0.190881 -0.124728
v -0.229818 0.213887 -0.190845
v -0.213929 0.232361 -0.124728
v -0.134831 0.230283 -0.193829
v 0.059485 -0.148399 -0.193829
v 0.021698 -0.229188 -0.124728
v -0.000000 -0.231558 -0.190845
v 0.013629 -0.196180 -0.217346
v -0.021698 -0.229188 -0.124728
v -0.059485 -0.148399 -0.193829
v -0.013629 -0.196180 -0.217346
v -0.033920 -0.103056 -0.235304
v 0.033920 -0.103056 -0.235304
v 0.000000 0.241477 0.125438
v 0.000000 0.215415 0.222433
v 0.000000 0.138611 0.245509
v 0.053436 0.036596 -0.245509
v 0.116202 -0.005765 -0.222433
v 0.138254 -0.022780 -0.125438
v -0.000000 0.138611 -0.245509
v 0.000000 0.215416 -0.222432
v 0.000000 0.241477 -0.125438
v 0.211715 0.115896 0.000000
v 0.241264 0.220651 0.000000
v 0.141174 0.242240 0.000000
v -0.141174 0.242240 0.000000
v -0.241264 0.220651 0.000000
v -0.211715 0.115896 0.000000
v 0.138254 -0.022780 0.125438
v 0.116202 -0.005765 0.222432
v 0.053436 0.036596 0.245509
v -0.138254 -0.022780 0.125438
v -0.116202 -0.005765 0.222432
v -0.053436 0.036596 0.245509
v -0.053436 0.036596 -0.245509
v -0.116202 -0.005765 -0.222433
v -0.138254 -0.022780 -0.125438
v -0.066083 -0.163924 -0.000000
v -0.000000 -0.249121 -0.000000
v 0.066083 -0.163924 -0.000000
v -0.140919 -0.024954 0.000000
v 0.140919 -0.024954 0.000000
v 0.000000 0.070963 0.247965
v -0.000000 0.070963 -0.247965
v 0.183517 0.186001 0.229168
v 0.229328 0.188163 0.192123
v 0.206787 0.224988 0.192123
v -0.183517 0.186001 0.229168
v -0.206787 0.224988 0.192123
v -0.229328 0.188163 0.192123
v 0.019276 -0.215984 0.192123
v 0.000000 -0.167180 0.229168
v -0.019276 -0.215984 0.192123
v 0.229328 0.188163 -0.192123
v 0.183517 0.186001 -0.229168
v 0.206787 0.224988 -0.192123
v -0.183517 0.186001 -0.229168
v -0.229328 0.188163 -0.192123
v -0.206787 0.224988 -0.192123
v 0.019276 -0.215984 -0.192123
v -0.019276 -0.215984 -0.192123
v -0.000000 -0.167180 -0.229168
v -0.000000 0.231918 0.194469
v 0.000000 0.188777 0.237260
v 0.093941 0.009833 -0.237260
v 0.130165 -0.016304 -0.194469
v -0.000000 0.188778 -0.237260
v 0.000000 0.231918 -0.194469
v 0.242726 0.191887 0.000000
v 0.216401 0.234765 0.000000
v -0.216401 0.234765 0.000000
v -0.242726 0.191887 0.000000
v 0.130165 -0.016304 0.194469
v 0.093941 0.009833 0.237260
v -0.130165 -0.016304 0.194469
v -0.093941 0.009833 0.237260
v -0.093941 0.009833 -0.237260
v -0.130165 -0.016304 -0.194469
v -0.022424 -0.233711 -0.000000
v 0.022424 -0.233711 -0.000000
v 0.000000 0.244627 0.000000
vn -0.9054 -0.4168 0.0804
vn -0.9097 -0.4153 -0.0000
vn -0.8869 -0.4619 -0.0000
vn -0.8835 -0.4607 0.0847
vn -0.9054 -0.4168 -0.0804
vn -0.8835 -0.4607 -0.0847
vn -0.8631 -0.4979 -0.0844
vn -0.8651 -0.5016 -0.0000
vn -0.8631 -0.4979 0.0844
vn 0.8631 -0.4979 0.0844
vn 0.8651 -0.5016 -0.0000
vn 0.8869 -0.4619 -0.0000
vn 0.8835 -0.4607 0.0847
vn 0.8631 -0.4979 -0.0844
vn 0.8835 -0.4607 -0.0847
vn 0.9054 -0.4168 -0.0804
vn 0.9097 -0.4153 -0.0000
vn 0.9054 -0.4168 0.0804
vn 0.0829 0.0456 0.9955
vn -0.0000 0.0847 0.9964
vn -0.0000 0.0015 1.0000
vn 0.0775 -0.0408 0.9962
vn -0.0829 0.0456 0.9955
vn -0.0775 -0.0408 0.9962
vn -0.0000 -0.0863 0.9963
vn 0.0829 0.0456 -0.9955
vn 0.0775 -0.0408 -0.9962
vn -0.0000 0.0015 -1.0000
vn -0.0000 0.0847 -0.9964
vn -0.0000 -0.0863 -0.9963
vn -0.0775 -0.0408 -0.9962
vn -0.0829 0.0456 -0.9955
vn 0.2727 -0.0770 0.9590
vn 0.2393 0.1432 0.9603
vn 0.0625 0.2743 0.9596
vn 0.6102 -0.2699 0.7449
vn 0.6213 -0.0773 0.7797
vn 0.6035 0.3784 0.7018
vn 0.2206 0.5953 0.7726
vn 0.0478 0.6733 0.7378
vn 0.9804 -0.1794 0.0812
vn 0.9231 -0.1948 0.3315
vn 0.8539 -0.3976 0.3356
vn 0.8425 0.5309 0.0916
vn 0.7919 0.4998 0.3510
vn 0.0533 0.9956 0.0771
vn 0.0469 0.9446 0.3248
vn 0.2517 0.9126 0.3222
vn 0.2897 0.9539 0.0788
vn -0.0625 0.2743 0.9596
vn -0.2393 0.1432 0.9603
vn -0.2727 -0.0770 0.9590
vn -0.0478 0.6733 0.7378
vn -0.2206 0.5953 0.7726
vn -0.6035 0.3784 0.7018
vn -0.6213 -0.0773 0.7797
vn -0.6102 -0.2699 0.7449
vn -0.0533 0.9956 0.0771
vn -0.2897 0.9539 0.0788
vn -0.2517 0.9126 0.3222
vn -0.0469 0.9446 0.3248
vn -0.8425 0.5309 0.0916
vn -0.7919 0.4998 0.3510
vn -0.8539 -0.3976 0.3356
vn -0.9231 -0.1948 0.3315
vn -0.9804 -0.1794 0.0812
vn 0.8145 -0.4674 0.3437
vn 0.6974 -0.6212 0.3574
vn 0.7250 -0.6825 0.0927
vn 0.5642 -0.3402 0.7523
vn 0.4025 -0.4340 0.8060
vn -0.0000 -0.6636 0.7481
vn -0.0000 -0.9140 0.4057
vn -0.0000 -0.9931 0.1174
vn -0.2111 -0.1740 0.9619
vn -0.0000 -0.2490 0.9685
vn 0.2111 -0.1740 0.9619
vn -0.5642 -0.3402 0.7523
vn -0.4025 -0.4340 0.8060
vn -0.7250 -0.6825 0.0927
vn -0.6974 -0.6212 0.3574
vn -0.8145 -0.4674 0.3437
vn 0.8539 -0.3976 -0.3356
vn 0.9231 -0.1948 -0.3315
vn 0.9804 -0.1794 -0.0812
vn 0.6102 -0.2699 -0.7449
vn 0.6213 -0.0773 -0.7797
vn 0.6035 0.3784 -0.7018
vn 0.7919 0.4998 -0.3510
vn 0.8425 0.5309 -0.0916
vn 0.0625 0.2743 -0.9596
vn 0.2393 0.1432 -0.9603
vn 0.2727 -0.0770 -0.9590
vn 0.0478 0.6733 -0.7378
vn 0.2206 0.5953 -0.7726
vn 0.0533 0.9956 -0.0771
vn 0.2897 0.9539 -0.0788
vn 0.2517 0.9126 -0.3222
vn 0.0469 0.9446 -0.3248
vn -0.2727 -0.0770 -0.9590
vn -0.2393 0.1432 -0.9603
vn -0.0625 0.2743 -0.9596
vn -0.6102 -0.2699 -0.7449
vn -0.6213 -0.0773 -0.7797
vn -0.6035 0.3784 -0.7018
vn -0.2206 0.5953 -0.7726
vn -0.0478 0.6733 -0.7378
vn -0.9804 -0.1794 -0.0812
vn -0.9231 -0.1948 -0.3315
vn -0.8539 -0.3976 -0.3356
vn -0.8425 0.5309 -0.0916
vn -0.7919 0.4998 -0.3510
vn -0.0533 0.9956 -0.0771
vn -0.0469 0.9446 -0.3248
vn -0.2517 0.9126 -0.3222
vn -0.2897 0.9539 -0.0788
vn 0.7250 -0.6825 -0.0927
vn 0.6974 -0.6212 -0.3574
vn 0.8145 -0.4674 -0.3437
vn -0.0000 -0.9931 -0.1174
vn -0.0000 -0.9140 -0.4057
vn -0.0000 -0.6636 -0.7481
vn 0.4025 -0.4340 -0.8060
vn 0.5642 -0.3402 -0.7523
vn -0.8145 -0.4674 -0.3437
vn -0.6974 -0.6212 -0.3574
vn -0.7250 -0.6825 -0.0927
vn -0.5642 -0.3402 -0.7523
vn -0.4024 -0.4340 -0.8060
vn 0.2111 -0.1740 -0.9619
vn -0.0000 -0.2490 -0.9685
vn -0.2111 -0.1740 -0.9619
vn -0.0000 0.9968 0.0795
vn -0.0000 0.9447 0.3280
vn -0.0000 0.6891 0.7247
vn -0.0000 0.3113 0.9503
vn 0.2756 -0.1446 -0.9504
vn 0.6012 -0.3149 -0.7344
vn 0.8327 -0.4352 -0.3425
vn -0.0000 0.3113 -0.9503
vn -0.0000 0.6891 -0.7247
vn -0.0000 0.9447 -0.3280
vn -0.0000 0.9968 -0.0795
vn 0.9852 -0.1716 -0.0000
vn 0.8462 0.5329 -0.0000
vn 0.2986 0.9544 -0.0000
vn 0.0564 0.9984 -0.0000
vn -0.0564 0.9984 -0.0000
vn -0.2986 0.9544 -0.0000
vn -0.8462 0.5329 -0.0000
vn -0.9852 -0.1716 -0.0000
vn 0.8327 -0.4352 0.3425
vn 0.6012 -0.3149 0.7344
vn 0.2756 -0.1446 0.9504
vn -0.8327 -0.4352 0.3425
vn -0.6012 -0.3149 0.7344
vn -0.2756 -0.1446 0.9504
vn -0.2756 -0.1446 -0.9504
vn -0.6012 -0.3149 -0.7344
vn -0.8327 -0.4352 -0.3425
vn -0.7226 -0.6913 -0.0000
vn -0.0000 -1.0000 -0.0000
vn 0.7226 -0.6913 -0.0000
vn -0.0000 1.0000 -0.0000
vt 0.999100 0.236379
vt 0.999888 0.225779
vt 0.999986 0.499799
vt 0.999888 0.498393
vt 1.000000 0.134164
vt 1.000000 0.500000
vt 1.000000 0.865836
vt 1.000000 0.773686
vt 1.000000 0.761457
vt 0.000000 0.758621
vt 0.000000 0.764698
vt 0.000027 0.497413
vt 0.000213 0.498039
vt 0.000000 0.761457
vt 0.000000 0.487893
vt 0.000000 0.134164
vt 0.000213 0.225742
vt 0.001704 0.236379
vt 0.429982 0.207696
vt 0.595469 0.190939
vt 0.661005 0.321945
vt 0.594150 0.388159
vt 0.777714 0.207696
vt 0.794364 0.388159
vt 0.595470 0.190939
vt 0.777844 0.552853
vt 0.594150 0.388159
vt 0.222286 0.207696
vt 0.205636 0.388159
vt 0.338995 0.321945
vt 0.404531 0.190939
vt 0.222156 0.552853
vt 0.405850 0.388159
vt 0.570018 0.207696
vt 0.405850 0.388159
vt 0.316416 0.222570
vt 0.199187 0.095567
vt 0.331186 0.088421
vt 0.163197 0.163197
vt 0.112277 0.096083
vt 0.061357 0.028969
vt 0.143948 0.035158
vt 0.281979 0.028585
vt 0.008138 0.086782
vt 0.018369 0.094089
vt 0.004474 0.234774
vt 0.032719 0.026386
vt 0.048541 0.033921
vt 0.030679 0.096083
vt 0.000000 0.163197
vt 0.246076 0.000805
vt 0.257178 0.005484
vt 0.113738 0.012248
vt 0.096963 0.005209
vt 0.281979 0.028585
vt 0.777714 0.207696
vt 0.757235 0.088421
vt 0.893160 0.096997
vt 0.902384 0.228628
vt 0.746606 0.028585
vt 0.887938 0.037006
vt 0.944207 0.049903
vt 0.958627 0.101956
vt 0.968041 0.240439
vt 0.754729 0.000805
vt 0.905351 0.005209
vt 0.895402 0.012754
vt 0.748307 0.005484
vt 0.970500 0.026386
vt 0.960010 0.035768
vt 0.887938 0.037006
vt 0.746606 0.028585
vt 0.999100 0.236379
vt 0.993868 0.240832
vt 0.985741 0.095519
vt 0.994176 0.086782
vt 0.968041 0.240439
vt 0.958627 0.101956
vt 0.960010 0.035768
vt 0.970500 0.026386
vt 0.000000 0.758621
vt 0.000000 0.750321
vt 0.000000 0.883396
vt 0.000000 0.909277
vt 0.000000 0.815426
vt 0.000000 0.856679
vt 0.000000 0.897932
vt 0.000000 0.948966
vt 0.000000 1.000000
vt 0.777844 0.552853
vt 0.907705 0.663494
vt 0.904990 0.783001
vt 0.762898 0.663742
vt 1.000000 0.815426
vt 1.000000 0.856679
vt 1.000000 0.897932
vt 0.907713 0.856679
vt 0.815426 0.815426
vt 1.000000 0.916720
vt 1.000000 0.910375
vt 0.999418 0.757516
vt 1.000000 1.000000
vt 1.000000 1.000000
vt 1.000000 0.907713
vt 0.000000 0.134164
vt 0.000000 0.148680
vt 0.012503 0.083055
vt 0.000000 0.067082
vt 0.000000 0.163197
vt 0.038625 0.093539
vt 0.055793 0.049903
vt 0.037344 0.033402
vt 0.000000 0.000000
vt 0.222286 0.207696
vt 0.237072 0.085492
vt 0.104679 0.094775
vt 0.094342 0.222396
vt 0.182459 0.000000
vt 0.104311 0.034547
vt 0.038625 0.093539
vt 0.150000 0.000000
vt 0.075000 0.000000
vt 0.092858 0.011183
vt 0.166230 0.000000
vt 0.104311 0.034547
vt 0.570018 0.207696
vt 0.683584 0.222570
vt 0.802903 0.094965
vt 0.677436 0.085492
vt 0.836803 0.163197
vt 0.887723 0.096083
vt 0.938643 0.028969
vt 0.866261 0.032700
vt 0.817541 0.000000
vt 1.000000 0.067082
vt 0.982778 0.090992
vt 0.995739 0.226146
vt 1.000000 0.000000
vt 0.954507 0.031554
vt 0.969322 0.096083
vt 1.000000 0.163197
vt 0.850000 0.000000
vt 0.833770 0.000000
vt 0.899094 0.010678
vt 0.925000 0.000000
vt 0.954507 0.031554
vt 0.000000 0.916720
vt 0.000000 0.910375
vt 0.000000 0.757763
vt 0.000000 1.000000
vt 0.000000 0.907713
vt 0.000000 0.815426
vt 1.000000 0.840631
vt 1.000000 0.893740
vt 1.000000 0.920255
vt 1.000000 0.815426
vt 1.000000 0.856679
vt 1.000000 0.897932
vt 1.000000 0.948966
vt 0.222156 0.552853
vt 0.091713 0.663742
vt 0.095010 0.783001
vt 0.237102 0.663742
vt 0.000000 0.856679
vt 0.000000 0.897932
vt 0.092287 0.856679
vt 0.184574 0.815426
vt 0.500101 0.000201
vt 0.501857 0.003715
vt 0.257178 0.005484
vt 0.748307 0.005484
vt 0.512948 0.025896
vt 0.281979 0.028585
vt 0.512948 0.025896
vt 0.542007 0.084013
vt 0.331186 0.088421
vt 0.757235 0.088421
vt 0.777714 0.207696
vt 0.595470 0.190939
vt 0.429982 0.207696
vt 0.222156 0.552853
vt 0.089066 0.445558
vt 0.091713 0.663742
vt 0.000000 0.489311
vt 0.000000 0.484917
vt 0.000000 0.757763
vt 0.000000 0.487893
vt 0.404531 0.190939
vt 0.459637 0.080726
vt 0.500000 0.000000
vt 0.182459 0.000000
vt 0.500000 0.000000
vt 0.817541 0.000000
vt 0.850000 0.000000
vt 0.150000 0.000000
vt 0.003231 0.080342
vt 0.008138 0.086782
vt 0.023882 0.021000
vt 0.088075 0.002631
vt 0.234579 0.000101
vt 0.246076 0.000805
vt 0.754729 0.000805
vt 0.765522 0.000101
vt 0.912214 0.002631
vt 0.905351 0.005209
vt 0.976521 0.021000
vt 0.997059 0.080342
vt 0.000000 0.758621
vt 0.000213 0.498039
vt 0.000453 0.494051
vt 0.000000 0.750321
vt 0.000000 0.489311
vt 0.489311 0.489311
vt 0.535377 0.445558
vt 0.762898 0.663742
vt 0.316416 0.222570
vt 0.429982 0.207696
vt 0.594150 0.388159
vt 0.777844 0.552853
vt 0.999100 0.236379
vt 0.999888 0.498393
vt 0.996759 0.495434
vt 0.973848 0.485883
vt 0.968041 0.240439
vt 0.907932 0.446188
vt 0.902384 0.228628
vt 0.907704 0.663494
vt 0.777844 0.552853
vt 0.794364 0.388159
vt 0.464623 0.445558
vt 0.683584 0.222570
vt 0.510689 0.489311
vt 1.000000 0.489311
vt 0.999574 0.502402
vt 1.000000 0.840631
vt 1.000000 0.865836
vt 1.000000 0.921017
vt 1.000000 0.916720
vt 0.000000 0.918779
vt 0.000000 0.909277
vt 0.000000 0.916720
vt 0.500013 0.000025
vt 0.500101 0.000201
s 1
f 10/1/1 111/2/2 124/3/3 115/4/4
f 111/2/2 30/5/5 120/6/6 124/3/3
f 124/3/3 120/6/6 37/7/7 121/8/8
f 115/4/4 124/3/3 121/8/8 17/9/9
f 15/10/10 123/11/11 125/12/12 112/13/13
f 123/11/11 36/14/14 102/15/15 125/12/12
f 125/12/12 102/15/15 22/16/16 106/17/17
f 112/13/13 125/12/12 106/17/17 2/18/18
f 1/19/19 99/20/20 126/21/21 114/22/22
f 8/23/23 117/24/24 126/21/21 99/25/20
f 16/26/25 114/27/22 126/21/21 117/24/24
f 23/28/26 100/29/27 127/30/28 103/31/29
f 38/32/30 118/33/31 127/30/28 100/29/27
f 29/34/32 103/31/29 127/30/28 118/35/31
f 1/19/19 44/36/33 128/37/34 43/38/35
f 44/36/33 4/39/36 45/40/37 128/37/34
f 128/37/34 45/40/37 5/41/38 46/42/39
f 43/38/35 128/37/34 46/42/39 7/43/40
f 2/18/18 48/44/41 129/45/42 47/46/43
f 48/44/41 6/47/44 49/48/45 129/45/42
f 129/45/42 49/48/45 5/41/38 45/49/37
f 47/46/43 129/45/42 45/49/37 4/50/36
f 3/51/46 51/52/47 130/53/48 50/54/49
f 51/52/47 7/55/40 46/42/39 130/53/48
f 130/53/48 46/42/39 5/41/38 49/48/45
f 50/54/49 130/53/48 49/48/45 6/47/44
f 8/56/23 53/57/50 131/58/51 52/59/52
f 53/57/50 11/60/53 54/61/54 131/58/51
f 131/58/51 54/61/54 12/62/55 55/63/56
f 52/59/52 131/58/51 55/63/56 14/64/57
f 9/65/58 57/66/59 132/67/60 56/68/61
f 57/66/59 13/69/62 58/70/63 132/67/60
f 132/67/60 58/70/63 12/62/55 54/71/54
f 56/68/61 132/67/60 54/71/54 11/72/53
f 10/73/1 60/74/64 133/75/65 59/76/66
f 60/74/64 14/77/57 55/78/56 133/75/65
f 133/75/65 55/78/56 12/62/55 58/79/63
f 59/76/66 133/75/65 58/79/63 13/80/62
f 15/81/10 62/82/67 134/83/68 61/84/69
f 62/82/67 18/85/70 63/86/71 134/83/68
f 134/83/68 63/86/71 19/87/72 64/88/73
f 61/84/69 134/83/68 64/88/73 21/89/74
f 16/90/25 66/91/75 135/92/76 65/93/77
f 66/91/75 20/94/78 67/95/79 135/92/76
f 135/92/76 67/95/79 19/96/72 63/97/71
f 65/93/77 135/92/76 63/97/71 18/98/70
f 17/9/9 69/99/80 136/100/81 68/101/82
f 69/99/80 21/102/74 64/103/73 136/100/81
f 136/100/81 64/103/73 19/103/72 67/104/79
f 68/101/82 136/100/81 67/104/79 20/94/78
f 22/105/16 71/106/83 137/107/84 70/108/85
f 71/106/83 25/109/86 72/110/87 137/107/84
f 137/107/84 72/110/87 26/111/88 73/112/89
f 70/108/85 137/107/84 73/112/89 28/113/90
f 23/114/26 75/115/91 138/116/92 74/117/93
f 75/115/91 27/118/94 76/119/95 138/116/92
f 138/116/92 76/119/95 26/111/88 72/120/87
f 74/117/93 138/116/92 72/120/87 25/109/86
f 24/121/96 78/122/97 139/123/98 77/124/99
f 78/122/97 28/113/90 73/112/89 139/123/98
f 139/123/98 73/112/89 26/111/88 76/125/95
f 77/124/99 139/123/98 76/125/95 27/118/94
f 29/126/32 80/127/100 140/128/101 79/129/102
f 80/127/100 32/130/103 81/131/104 140/128/101
f 140/128/101 81/131/104 33/132/105 82/133/106
f 79/129/102 140/128/101 82/133/106 35/134/107
f 30/5/5 84/135/108 141/136/109 83/137/110
f 84/135/108 34/138/111 85/139/112 141/136/109
f 141/136/109 85/139/112 33/132/105 81/140/104
f 83/137/110 141/136/109 81/140/104 32/141/103
f 31/142/113 87/143/114 142/144/115 86/145/116
f 87/143/114 35/134/107 82/133/106 142/144/115
f 142/144/115 82/133/106 33/132/105 85/146/112
f 86/145/116 142/144/115 85/146/112 34/138/111
f 36/14/14 89/147/117 143/148/118 88/149/119
f 89/147/117 39/89/120 90/150/121 143/148/118
f 143/148/118 90/150/121 40/150/122 91/151/123
f 88/149/119 143/148/118 91/151/123 42/152/124
f 37/7/7 93/153/125 144/154/126 92/155/127
f 93/153/125 41/156/128 94/157/129 144/154/126
f 144/154/126 94/157/129 40/158/122 90/159/121
f 92/155/127 144/154/126 90/159/121 39/102/120
f 38/160/30 96/161/130 145/162/131 95/163/132
f 96/161/130 42/152/124 91/164/123 145/162/131
f 145/162/131 91/164/123 40/165/122 94/166/129
f 95/163/132 145/162/131 94/166/129 41/167/128
f 3/51/46 97/168/133 146/169/134 51/170/47
f 97/168/133 9/65/58 56/171/61 146/169/134
f 146/169/134 56/171/61 11/72/53 98/172/135
f 51/170/47 146/169/134 98/172/135 7/173/40
f 7/43/40 98/174/135 147/175/136 43/176/35
f 98/174/135 11/72/53 53/177/50 147/175/136
f 147/175/136 53/177/50 8/178/23 99/179/20
f 43/176/35 147/175/136 99/179/20 1/180/19
f 38/181/30 100/29/27 148/182/137 96/183/130
f 100/29/27 23/114/26 74/117/93 148/182/137
f 148/182/137 74/117/93 25/109/86 101/184/138
f 96/183/130 148/182/137 101/184/138 42/152/124
f 42/152/124 101/184/138 149/185/139 88/186/119
f 101/184/138 25/50/86 71/106/83 149/185/139
f 149/185/139 71/106/83 22/16/16 102/187/15
f 88/186/119 149/185/139 102/187/15 36/14/14
f 23/28/26 103/188/29 150/189/140 75/115/91
f 103/188/29 29/126/32 79/129/102 150/189/140
f 150/189/140 79/129/102 35/134/107 104/190/141
f 75/115/91 150/189/140 104/190/141 27/118/94
f 27/191/94 104/190/141 151/192/142 77/124/99
f 104/190/141 35/193/107 87/143/114 151/192/142
f 151/192/142 87/143/114 31/194/113 105/190/143
f 77/124/99 151/192/142 105/190/143 24/195/96
f 2/18/18 106/17/17 152/196/144 48/197/41
f 106/17/17 22/16/16 70/108/85 152/196/144
f 152/196/144 70/108/85 28/113/90 107/198/145
f 48/197/41 152/196/144 107/198/145 6/47/44
f 6/47/44 107/198/145 153/199/146 50/54/49
f 107/198/145 28/113/90 78/122/97 153/199/146
f 153/199/146 78/122/97 24/195/96 108/200/147
f 50/54/49 153/199/146 108/200/147 3/201/46
f 9/202/58 109/203/148 154/204/149 57/205/59
f 109/203/148 31/194/113 86/145/116 154/204/149
f 154/204/149 86/145/116 34/138/111 110/206/150
f 57/205/59 154/204/149 110/206/150 13/69/62
f 13/69/62 110/206/150 155/207/151 59/76/66
f 110/206/150 34/138/111 84/135/108 155/207/151
f 155/207/151 84/135/108 30/5/5 111/2/2
f 59/76/66 155/207/151 111/2/2 10/1/1
f 15/208/10 112/209/13 156/210/152 62/211/67
f 112/209/13 2/18/18 47/46/43 156/210/152
f 156/210/152 47/46/43 4/50/36 113/212/153
f 62/211/67 156/210/152 113/212/153 18/85/70
f 18/98/70 113/213/153 157/214/154 65/215/77
f 113/213/153 4/39/36 44/216/33 157/214/154
f 157/214/154 44/216/33 1/217/19 114/218/22
f 65/215/77 157/214/154 114/218/22 16/219/25
f 10/220/1 115/221/4 158/222/155 60/74/64
f 115/221/4 17/9/9 68/101/82 158/222/155
f 158/222/155 68/101/82 20/94/78 116/223/156
f 60/74/64 158/222/155 116/223/156 14/224/57
f 14/224/57 116/223/156 159/225/157 52/226/52
f 116/223/156 20/94/78 66/227/75 159/225/157
f 159/225/157 66/227/75 16/228/25 117/229/24
f 52/226/52 159/225/157 117/229/24 8/178/23
f 29/126/32 118/33/31 160/230/158 80/231/100
f 118/33/31 38/160/30 95/163/132 160/230/158
f 160/230/158 95/163/132 41/167/128 119/232/159
f 80/231/100 160/230/158 119/232/159 32/130/103
f 32/141/103 119/233/159 161/234/160 83/137/110
f 119/233/159 41/156/128 93/235/125 161/234/160
f 161/234/160 93/235/125 37/236/7 120/6/6
f 83/137/110 161/234/160 120/6/6 30/5/5
f 17/9/9 121/8/8 162/237/161 69/238/80
f 121/8/8 37/7/7 92/155/127 162/237/161
f 162/237/161 92/155/127 39/102/120 122/103/162
f 69/238/80 162/237/161 122/103/162 21/102/74
f 21/89/74 122/150/162 163/239/163 61/240/69
f 122/150/162 39/89/120 89/241/117 163/239/163
f 163/239/163 89/241/117 36/14/14 123/11/11
f 61/240/69 163/239/163 123/11/11 15/10/10
f 3/201/46 108/200/147 164/242/164 97/243/133
f 108/200/147 24/195/96 105/190/143 164/242/164
f 164/242/164 105/190/143 31/194/113 109/203/148
f 97/243/133 164/242/164 109/203/148 9/202/58
