# Blender 4.4.0
# www.blender.org
o Bevel_CL
v 0.152000 -0.050667 -0.237500
v 0.152000 0.050667 -0.237500
v 0.212458 0.050667 -0.212458
v 0.212458 -0.050667 -0.212458
v 0.237500 0.050667 -0.152000
v 0.237500 -0.050667 -0.152000
v 0.152000 0.050667 0.237500
v 0.152000 -0.050667 0.237500
v 0.212458 -0.050667 0.212458
v 0.212458 0.050667 0.212458
v 0.237500 -0.050667 0.152000
v 0.237500 0.050667 0.152000
v -0.237500 0.050667 0.152000
v -0.237500 -0.050667 0.152000
v -0.212458 -0.050667 0.212458
v -0.212458 0.050667 0.212458
v -0.152000 -0.050667 0.237500
v -0.152000 0.050667 0.237500
v -0.152000 0.050667 -0.237500
v -0.152000 -0.050667 -0.237500
v -0.212458 -0.050667 -0.212458
v -0.212458 0.050667 -0.212458
v -0.237500 -0.050667 -0.152000
v -0.237500 0.050667 -0.152000
v -0.138064 0.046021 -0.248425
v -0.138064 -0.046021 -0.248425
v 0.138064 -0.046021 -0.248425
v 0.138064 0.046021 -0.248425
v -0.248425 0.046021 0.138064
v -0.248425 -0.046021 0.138064
v -0.248425 -0.046021 -0.138064
v -0.248425 0.046021 -0.138064
v 0.248425 0.046021 -0.138064
v 0.248425 -0.046021 -0.138064
v 0.248425 -0.046021 0.138064
v 0.248425 0.046021 0.138064
v 0.138064 0.046021 0.248425
v 0.138064 -0.046021 0.248425
v -0.138064 -0.046021 0.248425
v -0.138064 0.046021 0.248425
v 0.169056 -0.046021 -0.242261
v 0.169056 0.046021 -0.242261
v 0.203764 0.046021 -0.227884
v 0.203764 -0.046021 -0.227884
v 0.227884 0.046021 -0.203764
v 0.227884 -0.046021 -0.203764
v 0.242261 0.046021 -0.169056
v 0.242261 -0.046021 -0.169056
v 0.169056 0.046021 0.242261
v 0.169056 -0.046021 0.242261
v 0.203764 -0.046021 0.227884
v 0.203764 0.046021 0.227884
v 0.227884 -0.046021 0.203764
v 0.227884 0.046021 0.203764
v 0.242261 -0.046021 0.169056
v 0.242261 0.046021 0.169056
v -0.242261 0.046021 0.169056
v -0.242261 -0.046021 0.169056
v -0.227884 -0.046021 0.203764
v -0.227884 0.046021 0.203764
v -0.203764 -0.046021 0.227884
v -0.203764 0.046021 0.227884
v -0.169056 -0.046021 0.242261
v -0.169056 0.046021 0.242261
v -0.169056 0.046021 -0.242261
v -0.169056 -0.046021 -0.242261
v -0.203764 -0.046021 -0.227884
v -0.203764 0.046021 -0.227884
v -0.227884 -0.046021 -0.203764
v -0.227884 0.046021 -0.203764
v -0.242261 -0.046021 -0.169056
v -0.242261 0.046021 -0.169056
v 0.221199 0.046021 -0.120190
v 0.197814 0.046021 -0.114068
v 0.175596 0.047966 -0.109915
v 0.157045 0.046021 -0.108995
v 0.125932 0.046021 -0.109409
v 0.102810 0.048433 -0.107483
v 0.080752 0.046021 -0.108873
v -0.080752 0.046021 -0.108873
v -0.102810 0.048433 -0.107483
v -0.125932 0.046021 -0.109409
v -0.157045 0.046021 -0.108995
v -0.175596 0.047966 -0.109915
v -0.197814 0.046021 -0.114068
v -0.221199 0.046021 -0.120190
v 0.221199 0.046021 0.120190
v 0.197814 0.046021 0.114068
v 0.175596 0.047966 0.109915
v 0.157045 0.046021 0.108995
v 0.125932 0.046021 0.109409
v 0.102810 0.048433 0.107483
v 0.080752 0.046021 0.108873
v -0.080752 0.046021 0.108873
v -0.102810 0.048433 0.107483
v -0.125932 0.046021 0.109409
v -0.157045 0.046021 0.108995
v -0.175596 0.047966 0.109915
v -0.197814 0.046021 0.114068
v -0.221199 0.046021 0.120190
v 0.221199 -0.046021 -0.120190
v 0.197814 -0.046021 -0.114068
v 0.175596 -0.047966 -0.109915
v 0.157045 -0.046021 -0.108995
v 0.125932 -0.046021 -0.109409
v 0.102810 -0.048433 -0.107483
v 0.080752 -0.046021 -0.108873
v -0.080752 -0.046021 -0.108873
v -0.102810 -0.048433 -0.107483
v -0.125932 -0.046021 -0.109409
v -0.157045 -0.046021 -0.108995
v -0.175596 -0.047966 -0.109915
v -0.197814 -0.046021 -0.114068
v -0.221199 -0.046021 -0.120190
v 0.221199 -0.046021 0.120190
v 0.197814 -0.046021 0.114068
v 0.175596 -0.047966 0.109915
v 0.157045 -0.046021 0.108995
v 0.125932 -0.046021 0.109409
v 0.102810 -0.048433 0.107483
v 0.080752 -0.046021 0.108873
v -0.080752 -0.046021 0.108873
v -0.102810 -0.048433 0.107483
v -0.125932 -0.046021 0.109409
v -0.157045 -0.046021 0.108995
v -0.175596 -0.047966 0.109915
v -0.197814 -0.046021 0.114068
v -0.221199 -0.046021 0.120190
vn -0.9632 -0.0000 0.2688
vn -0.4910 -0.0000 -0.8712
vn -0.8712 -0.0000 -0.4910
vn 0.2688 -0.0000 -0.9632
vn 0.2688 -0.0000 0.9632
vn -0.8712 -0.0000 0.4910
vn -0.4910 -0.0000 0.8712
vn -0.9632 -0.0000 -0.2688
vn 0.9632 -0.0000 -0.2688
vn 0.4910 -0.0000 0.8712
vn 0.8712 -0.0000 0.4910
vn -0.2688 -0.0000 0.9632
vn 0.9632 -0.0000 0.2688
vn 0.4910 -0.0000 -0.8712
vn 0.8712 -0.0000 -0.4910
vn -0.2688 -0.0000 -0.9632
vn -0.6170 -0.0000 0.7870
vn 0.6170 -0.0000 0.7870
vn 0.7870 -0.0000 0.6170
vn 0.7870 -0.0000 -0.6170
vn -0.7870 -0.0000 -0.6170
vn -0.7870 -0.0000 0.6170
vn 0.6170 -0.0000 -0.7870
vn -0.6170 -0.0000 -0.7870
vn -0.9239 -0.0000 -0.3827
vn -0.3827 -0.0000 -0.9239
vn -0.3827 -0.0000 0.9239
vn -0.9239 -0.0000 0.3827
vn 0.9239 -0.0000 0.3827
vn 0.3827 -0.0000 0.9239
vn 0.9239 -0.0000 -0.3827
vn 0.3827 -0.0000 -0.9239
vn -0.0000 -0.0000 1.0000
vn 1.0000 -0.0000 -0.0000
vn -1.0000 -0.0000 -0.0000
vn -0.0000 -0.0000 -1.0000
vn -0.2009 0.9788 0.0400
vn -0.0000 1.0000 -0.0000
vn -0.2009 0.9788 -0.0400
vn 0.1637 0.9840 0.0708
vn 0.0872 0.9962 -0.0000
vn 0.1637 0.9840 -0.0708
vn -0.2021 0.9772 -0.0644
vn -0.1042 0.9946 -0.0000
vn -0.2021 0.9772 0.0644
vn 0.1843 0.9801 0.0731
vn 0.1037 0.9946 -0.0000
vn 0.1843 0.9801 -0.0731
vn -0.1723 0.9832 -0.0599
vn -0.1087 0.9941 -0.0000
vn -0.1723 0.9832 0.0599
vn 0.1723 0.9832 -0.0599
vn 0.1087 0.9941 -0.0000
vn 0.1723 0.9832 0.0599
vn -0.1843 0.9801 0.0731
vn -0.1037 0.9946 -0.0000
vn -0.1843 0.9801 -0.0731
vn 0.2021 0.9772 -0.0644
vn 0.1042 0.9946 -0.0000
vn 0.2021 0.9772 0.0644
vn -0.1637 0.9840 0.0708
vn -0.0872 0.9962 -0.0000
vn -0.1637 0.9840 -0.0708
vn 0.2009 0.9788 0.0400
vn 0.2009 0.9788 -0.0400
vn -0.2009 -0.9788 0.0400
vn -0.0000 -1.0000 -0.0000
vn -0.2009 -0.9788 -0.0400
vn 0.1637 -0.9840 0.0708
vn 0.0872 -0.9962 -0.0000
vn 0.1637 -0.9840 -0.0708
vn -0.2021 -0.9772 -0.0644
vn -0.1042 -0.9946 -0.0000
vn -0.2021 -0.9772 0.0644
vn 0.1843 -0.9801 0.0731
vn 0.1037 -0.9946 -0.0000
vn 0.1843 -0.9801 -0.0731
vn -0.1723 -0.9832 -0.0599
vn -0.1087 -0.9941 -0.0000
vn -0.1723 -0.9832 0.0599
vn 0.1723 -0.9832 -0.0599
vn 0.1087 -0.9941 -0.0000
vn 0.1723 -0.9832 0.0599
vn -0.1843 -0.9801 0.0731
vn -0.1037 -0.9946 -0.0000
vn -0.1843 -0.9801 -0.0731
vn 0.2021 -0.9772 -0.0644
vn 0.1042 -0.9946 -0.0000
vn 0.2021 -0.9772 0.0644
vn -0.1637 -0.9840 0.0708
vn -0.0872 -0.9962 -0.0000
vn -0.1637 -0.9840 -0.0708
vn 0.2009 -0.9788 0.0400
vn 0.2009 -0.9788 -0.0400
vt 0.473333 0.705000
vt 0.526667 0.705000
vt 0.524222 0.714583
vt 0.475778 0.714583
vt 0.526667 0.750000
vt 0.473333 0.750000
vt 0.475778 0.740417
vt 0.524222 0.740417
vt 0.524222 0.759583
vt 0.475778 0.759583
vt 0.526667 0.795000
vt 0.473333 0.795000
vt 0.475778 0.785417
vt 0.524222 0.785417
vt 0.473333 0.455000
vt 0.526667 0.455000
vt 0.524222 0.464583
vt 0.475778 0.464583
vt 0.526667 0.500000
vt 0.473333 0.500000
vt 0.475778 0.490417
vt 0.524222 0.490417
vt 0.524222 0.509583
vt 0.475778 0.509583
vt 0.526667 0.545000
vt 0.473333 0.545000
vt 0.475778 0.535417
vt 0.524222 0.535417
vt 0.473333 0.205000
vt 0.526667 0.205000
vt 0.524222 0.214583
vt 0.475778 0.214583
vt 0.526667 0.250000
vt 0.473333 0.250000
vt 0.475778 0.240417
vt 0.524222 0.240417
vt 0.524222 0.259583
vt 0.475778 0.259583
vt 0.526667 0.295000
vt 0.473333 0.295000
vt 0.475778 0.285417
vt 0.524222 0.285417
vt 0.526667 0.045000
vt 0.473333 0.045000
vt 0.475778 0.035417
vt 0.524222 0.035417
vt 0.473333 0.000000
vt 0.526667 0.000000
vt 0.524222 0.009583
vt 0.475778 0.009583
vt 0.526667 1.000000
vt 0.473333 1.000000
vt 0.475778 0.990417
vt 0.524222 0.990417
vt 0.473333 0.955000
vt 0.526667 0.955000
vt 0.524222 0.964583
vt 0.475778 0.964583
vt 0.475778 0.447666
vt 0.524222 0.447666
vt 0.524222 0.302334
vt 0.475778 0.302334
vt 0.475778 0.197666
vt 0.524222 0.197666
vt 0.524222 0.052334
vt 0.475778 0.052334
vt 0.475778 0.697666
vt 0.524222 0.697666
vt 0.524222 0.552334
vt 0.475778 0.552335
vt 0.475778 0.947666
vt 0.524222 0.947666
vt 0.524222 0.802334
vt 0.475778 0.802335
vt 0.524222 0.095309
vt 0.524222 0.206774
vt 0.524222 0.120640
vt 0.524222 0.217079
vt 0.525245 0.140349
vt 0.525245 0.225930
vt 0.524222 0.468942
vt 0.525245 0.419419
vt 0.524222 0.390987
vt 0.525245 0.365465
vt 0.524222 0.502820
vt 0.524222 0.413847
vt 0.525491 0.530898
vt 0.525491 0.430641
vt 0.524222 0.553751
vt 0.524222 0.444677
vt 0.524222 0.548451
vt 0.524222 0.481423
vt 0.525491 0.565256
vt 0.525491 0.492436
vt 0.524222 0.580514
vt 0.524222 0.502820
vt 0.524222 0.593114
vt 0.524222 0.515042
vt 0.525245 0.609651
vt 0.525245 0.524070
vt 0.524222 0.629360
vt 0.524222 0.532921
vt 0.524222 0.654691
vt 0.524222 0.543226
vt 0.475778 0.095309
vt 0.475778 0.206774
vt 0.475778 0.120640
vt 0.475778 0.217079
vt 0.474755 0.140349
vt 0.474755 0.225930
vt 0.474755 0.419419
vt 0.475778 0.468943
vt 0.474755 0.365465
vt 0.475778 0.390987
vt 0.475778 0.502820
vt 0.475778 0.413847
vt 0.474509 0.530898
vt 0.474509 0.430641
vt 0.475778 0.553750
vt 0.475778 0.444677
vt 0.475778 0.548451
vt 0.475778 0.481423
vt 0.474509 0.565256
vt 0.474509 0.492436
vt 0.475778 0.580514
vt 0.475778 0.502820
vt 0.475778 0.593114
vt 0.475778 0.515042
vt 0.474755 0.609651
vt 0.474755 0.524070
vt 0.475778 0.629360
vt 0.475778 0.532921
vt 0.475778 0.654691
vt 0.475778 0.543226
s 0
f 23/1/1 24/2/1 72/3/1 71/4/1
f 22/5/2 21/6/2 69/7/2 70/8/2
f 21/6/3 22/5/3 68/9/3 67/10/3
f 19/11/4 20/12/4 66/13/4 65/14/4
f 17/15/5 18/16/5 64/17/5 63/18/5
f 16/19/6 15/20/6 61/21/6 62/22/6
f 15/20/7 16/19/7 60/23/7 59/24/7
f 13/25/8 14/26/8 58/27/8 57/28/8
f 11/29/9 12/30/9 56/31/9 55/32/9
f 10/33/10 9/34/10 53/35/10 54/36/10
f 9/34/11 10/33/11 52/37/11 51/38/11
f 7/39/12 8/40/12 50/41/12 49/42/12
f 5/43/13 6/44/13 48/45/13 47/46/13
f 4/47/14 3/48/14 45/49/14 46/50/14
f 3/51/15 4/52/15 44/53/15 43/54/15
f 1/55/16 2/56/16 42/57/16 41/58/16
f 18/16/17 17/15/17 39/59/17 40/60/17
f 8/40/18 7/39/18 37/61/18 38/62/18
f 12/30/19 11/29/19 35/63/19 36/64/19
f 6/44/20 5/43/20 33/65/20 34/66/20
f 24/2/21 23/1/21 31/67/21 32/68/21
f 14/26/22 13/25/22 29/69/22 30/70/22
f 2/56/23 1/55/23 27/71/23 28/72/23
f 20/12/24 19/11/24 25/73/24 26/74/24
f 70/8/25 69/7/25 71/4/25 72/3/25
f 65/14/26 66/13/26 67/10/26 68/9/26
f 62/22/27 61/21/27 63/18/27 64/17/27
f 57/28/28 58/27/28 59/24/28 60/23/28
f 54/36/29 53/35/29 55/32/29 56/31/29
f 49/42/30 50/41/30 51/38/30 52/37/30
f 46/50/31 45/49/31 47/46/31 48/45/31
f 41/58/32 42/57/32 43/54/32 44/53/32
f 38/62/33 37/61/33 40/60/33 39/59/33
f 34/66/34 33/65/34 36/64/34 35/63/34
f 30/70/35 29/69/35 32/68/35 31/67/35
f 26/74/36 25/73/36 28/72/36 27/71/36
f 47/46/37 73/75/37 33/65/37 5/43/37
f 73/75/38 87/76/38 36/64/38 33/65/38
f 87/76/39 56/31/39 12/30/39 36/64/39
f 45/49/38 74/77/38 73/75/38 47/46/38
f 74/77/38 88/78/38 87/76/38 73/75/38
f 88/78/38 54/36/38 56/31/38 87/76/38
f 3/48/40 75/79/40 74/77/40 45/49/40
f 75/79/41 89/80/41 88/78/41 74/77/41
f 89/80/42 10/33/42 54/36/42 88/78/42
f 43/54/43 76/81/43 75/82/43 3/51/43
f 76/81/44 90/83/44 89/84/44 75/82/44
f 90/83/45 52/37/45 10/33/45 89/84/45
f 42/57/38 77/85/38 76/81/38 43/54/38
f 77/85/38 91/86/38 90/83/38 76/81/38
f 91/86/38 49/42/38 52/37/38 90/83/38
f 2/56/46 78/87/46 77/85/46 42/57/46
f 78/87/47 92/88/47 91/86/47 77/85/47
f 92/88/48 7/39/48 49/42/48 91/86/48
f 28/72/49 79/89/49 78/87/49 2/56/49
f 79/89/50 93/90/50 92/88/50 78/87/50
f 93/90/51 37/61/51 7/39/51 92/88/51
f 25/73/38 80/91/38 79/89/38 28/72/38
f 80/91/38 94/92/38 93/90/38 79/89/38
f 94/92/38 40/60/38 37/61/38 93/90/38
f 19/11/52 81/93/52 80/91/52 25/73/52
f 81/93/53 95/94/53 94/92/53 80/91/53
f 95/94/54 18/16/54 40/60/54 94/92/54
f 65/14/55 82/95/55 81/93/55 19/11/55
f 82/95/56 96/96/56 95/94/56 81/93/56
f 96/96/57 64/17/57 18/16/57 95/94/57
f 68/9/38 83/97/38 82/95/38 65/14/38
f 83/97/38 97/98/38 96/96/38 82/95/38
f 97/98/38 62/22/38 64/17/38 96/96/38
f 22/5/58 84/99/58 83/97/58 68/9/58
f 84/99/59 98/100/59 97/98/59 83/97/59
f 98/100/60 16/19/60 62/22/60 97/98/60
f 70/8/61 85/101/61 84/99/61 22/5/61
f 85/101/62 99/102/62 98/100/62 84/99/62
f 99/102/63 60/23/63 16/19/63 98/100/63
f 72/3/38 86/103/38 85/101/38 70/8/38
f 86/103/38 100/104/38 99/102/38 85/101/38
f 100/104/38 57/28/38 60/23/38 99/102/38
f 24/2/64 32/68/64 86/103/64 72/3/64
f 32/68/38 29/69/38 100/104/38 86/103/38
f 29/69/65 13/25/65 57/28/65 100/104/65
f 6/44/66 34/66/66 101/105/66 48/45/66
f 34/66/67 35/63/67 115/106/67 101/105/67
f 35/63/68 11/29/68 55/32/68 115/106/68
f 48/45/67 101/105/67 102/107/67 46/50/67
f 101/105/67 115/106/67 116/108/67 102/107/67
f 115/106/67 55/32/67 53/35/67 116/108/67
f 46/50/69 102/107/69 103/109/69 4/47/69
f 102/107/70 116/108/70 117/110/70 103/109/70
f 116/108/71 53/35/71 9/34/71 117/110/71
f 4/52/72 103/111/72 104/112/72 44/53/72
f 103/111/73 117/113/73 118/114/73 104/112/73
f 117/113/74 9/34/74 51/38/74 118/114/74
f 44/53/67 104/112/67 105/115/67 41/58/67
f 104/112/67 118/114/67 119/116/67 105/115/67
f 118/114/67 51/38/67 50/41/67 119/116/67
f 41/58/75 105/115/75 106/117/75 1/55/75
f 105/115/76 119/116/76 120/118/76 106/117/76
f 119/116/77 50/41/77 8/40/77 120/118/77
f 1/55/78 106/117/78 107/119/78 27/71/78
f 106/117/79 120/118/79 121/120/79 107/119/79
f 120/118/80 8/40/80 38/62/80 121/120/80
f 27/71/67 107/119/67 108/121/67 26/74/67
f 107/119/67 121/120/67 122/122/67 108/121/67
f 121/120/67 38/62/67 39/59/67 122/122/67
f 26/74/81 108/121/81 109/123/81 20/12/81
f 108/121/82 122/122/82 123/124/82 109/123/82
f 122/122/83 39/59/83 17/15/83 123/124/83
f 20/12/84 109/123/84 110/125/84 66/13/84
f 109/123/85 123/124/85 124/126/85 110/125/85
f 123/124/86 17/15/86 63/18/86 124/126/86
f 66/13/67 110/125/67 111/127/67 67/10/67
f 110/125/67 124/126/67 125/128/67 111/127/67
f 124/126/67 63/18/67 61/21/67 125/128/67
f 67/10/87 111/127/87 112/129/87 21/6/87
f 111/127/88 125/128/88 126/130/88 112/129/88
f 125/128/89 61/21/89 15/20/89 126/130/89
f 21/6/90 112/129/90 113/131/90 69/7/90
f 112/129/91 126/130/91 127/132/91 113/131/91
f 126/130/92 15/20/92 59/24/92 127/132/92
f 69/7/67 113/131/67 114/133/67 71/4/67
f 113/131/67 127/132/67 128/134/67 114/133/67
f 127/132/67 59/24/67 58/27/67 128/134/67
f 71/4/93 114/133/93 31/67/93 23/1/93
f 114/133/67 128/134/67 30/70/67 31/67/67
f 128/134/94 58/27/94 14/26/94 30/70/94
