# Blender 4.4.0
# www.blender.org
o Cylinder_CL
v 0.000000 -0.038500 0.245000
v 0.000000 0.038500 0.245000
v -0.047797 0.038500 0.240292
v -0.047797 -0.038500 0.240292
v 0.047797 -0.038500 0.240292
v 0.047797 0.038500 0.240292
v -0.093757 0.038500 0.226350
v -0.093757 -0.038500 0.226350
v -0.136115 0.038500 0.203710
v -0.136115 -0.038500 0.203710
v -0.173241 0.038500 0.173241
v -0.173241 -0.038500 0.173241
v -0.203710 0.038500 0.136115
v -0.203710 -0.038500 0.136115
v -0.226350 0.038500 0.093757
v -0.226350 -0.038500 0.093757
v -0.240292 0.038500 0.047797
v -0.240292 -0.038500 0.047797
v -0.245000 0.038500 0.000000
v -0.245000 -0.038500 0.000000
v -0.240292 0.038500 -0.047797
v -0.240292 -0.038500 -0.047797
v -0.226350 0.038500 -0.093757
v -0.226350 -0.038500 -0.093757
v -0.203710 0.038500 -0.136115
v -0.203710 -0.038500 -0.136115
v -0.173241 0.038500 -0.173241
v -0.173241 -0.038500 -0.173241
v -0.136115 0.038500 -0.203710
v -0.136115 -0.038500 -0.203710
v -0.093757 0.038500 -0.226350
v -0.093757 -0.038500 -0.226350
v -0.047797 0.038500 -0.240292
v -0.047797 -0.038500 -0.240292
v 0.000000 0.038500 -0.245000
v 0.000000 -0.038500 -0.245000
v 0.047797 0.038500 -0.240292
v 0.047797 -0.038500 -0.240292
v 0.093757 0.038500 -0.226350
v 0.093757 -0.038500 -0.226350
v 0.136115 0.038500 -0.203710
v 0.136115 -0.038500 -0.203710
v 0.173241 0.038500 -0.173241
v 0.173241 -0.038500 -0.173241
v 0.203710 0.038500 -0.136115
v 0.203710 -0.038500 -0.136115
v 0.226350 0.038500 -0.093757
v 0.226350 -0.038500 -0.093757
v 0.240292 0.038500 -0.047797
v 0.240292 -0.038500 -0.047797
v 0.245000 0.038500 0.000000
v 0.245000 -0.038500 0.000000
v 0.240292 0.038500 0.047797
v 0.240292 -0.038500 0.047797
v 0.226350 0.038500 0.093757
v 0.226350 -0.038500 0.093757
v 0.203710 0.038500 0.136115
v 0.203710 -0.038500 0.136115
v 0.173241 0.038500 0.173241
v 0.173241 -0.038500 0.173241
v 0.136115 0.038500 0.203710
v 0.136115 -0.038500 0.203710
v 0.093757 0.038500 0.226350
v 0.093757 -0.038500 0.226350
v 0.000000 -0.038500 0.220500
v -0.000000 0.038500 0.220500
v -0.043017 0.038500 0.216263
v -0.043017 -0.038500 0.216263
v 0.043017 -0.038500 0.216263
v 0.043017 0.038500 0.216263
v -0.084382 0.038500 0.203715
v -0.084382 -0.038500 0.203715
v -0.122503 0.038500 0.183339
v -0.122503 -0.038500 0.183339
v -0.155917 0.038500 0.155917
v -0.155917 -0.038500 0.155917
v -0.183339 0.038500 0.122503
v -0.183339 -0.038500 0.122503
v -0.203715 0.038500 0.084382
v -0.203715 -0.038500 0.084382
v -0.216263 0.038500 0.043017
v -0.216263 -0.038500 0.043017
v -0.220500 0.038500 0.000000
v -0.220500 -0.038500 0.000000
v -0.216263 0.038500 -0.043017
v -0.216263 -0.038500 -0.043017
v -0.203715 0.038500 -0.084382
v -0.203715 -0.038500 -0.084382
v -0.183339 0.038500 -0.122503
v -0.183339 -0.038500 -0.122503
v -0.155917 0.038500 -0.155917
v -0.155917 -0.038500 -0.155917
v -0.122503 0.038500 -0.183339
v -0.122503 -0.038500 -0.183339
v -0.084382 0.038500 -0.203715
v -0.084382 -0.038500 -0.203715
v -0.043017 0.038500 -0.216263
v -0.043017 -0.038500 -0.216263
v 0.000000 0.038500 -0.220500
v 0.000000 -0.038500 -0.220500
v 0.043017 0.038500 -0.216263
v 0.043017 -0.038500 -0.216263
v 0.084382 0.038500 -0.203715
v 0.084382 -0.038500 -0.203715
v 0.122503 0.038500 -0.183339
v 0.122503 -0.038500 -0.183339
v 0.155917 0.038500 -0.155917
v 0.155917 -0.038500 -0.155917
v 0.183339 0.038500 -0.122503
v 0.183339 -0.038500 -0.122503
v 0.203715 0.038500 -0.084382
v 0.203715 -0.038500 -0.084382
v 0.216263 0.038500 -0.043017
v 0.216263 -0.038500 -0.043017
v 0.220500 0.038500 0.000000
v 0.220500 -0.038500 0.000000
v 0.216263 0.038500 0.043017
v 0.216263 -0.038500 0.043017
v 0.203715 0.038500 0.084382
v 0.203715 -0.038500 0.084382
v 0.183339 0.038500 0.122503
v 0.183339 -0.038500 0.122503
v 0.155917 0.038500 0.155917
v 0.155917 -0.038500 0.155917
v 0.122503 0.038500 0.183339
v 0.122503 -0.038500 0.183339
v 0.084382 0.038500 0.203715
v 0.084382 -0.038500 0.203715
vn -0.0000 -0.0000 1.0000
vn -0.1951 -0.0000 0.9808
vn -0.3827 -0.0000 0.9239
vn 0.3827 -0.0000 0.9239
vn 0.1951 -0.0000 0.9808
vn 0.5556 -0.0000 0.8315
vn 0.7071 -0.0000 0.7071
vn 0.8315 -0.0000 0.5556
vn 0.9239 -0.0000 0.3827
vn 0.9808 -0.0000 0.1951
vn 1.0000 -0.0000 -0.0000
vn 0.9808 -0.0000 -0.1951
vn 0.9239 -0.0000 -0.3827
vn 0.8315 -0.0000 -0.5556
vn 0.7071 -0.0000 -0.7071
vn 0.5556 -0.0000 -0.8315
vn 0.3827 -0.0000 -0.9239
vn 0.1951 -0.0000 -0.9808
vn -0.0000 -0.0000 -1.0000
vn -0.1951 -0.0000 -0.9808
vn -0.3827 -0.0000 -0.9239
vn -0.5556 -0.0000 -0.8315
vn -0.7071 -0.0000 -0.7071
vn -0.8315 -0.0000 -0.5556
vn -0.9239 -0.0000 -0.3827
vn -0.9808 -0.0000 -0.1951
vn -1.0000 -0.0000 -0.0000
vn -0.9808 -0.0000 0.1951
vn -0.9239 -0.0000 0.3827
vn -0.8315 -0.0000 0.5556
vn -0.7071 -0.0000 0.7071
vn -0.5556 -0.0000 0.8315
vn -0.0000 1.0000 -0.0000
vn -0.0000 -1.0000 -0.0000
vt 1.000000 0.715000
vt 1.000000 0.785000
vt 0.968750 0.785000
vt 0.968750 0.715000
vt 0.937500 0.785000
vt 0.937500 0.715000
vt 0.062500 0.715000
vt 0.062500 0.785000
vt 0.031250 0.785000
vt 0.031250 0.715000
vt 0.093750 0.715000
vt 0.093750 0.785000
vt 0.125000 0.715000
vt 0.125000 0.785000
vt 0.156250 0.715000
vt 0.156250 0.785000
vt 0.187500 0.715000
vt 0.187500 0.785000
vt 0.218750 0.715000
vt 0.218750 0.785000
vt 0.250000 0.715000
vt 0.250000 0.785000
vt 0.281250 0.715000
vt 0.281250 0.785000
vt 0.312500 0.715000
vt 0.312500 0.785000
vt 0.343750 0.715000
vt 0.343750 0.785000
vt 0.375000 0.715000
vt 0.375000 0.785000
vt 0.406250 0.715000
vt 0.406250 0.785000
vt 0.437500 0.715000
vt 0.437500 0.785000
vt 0.468750 0.715000
vt 0.468750 0.785000
vt 0.500000 0.715000
vt 0.500000 0.785000
vt 0.531250 0.715000
vt 0.531250 0.785000
vt 0.562500 0.715000
vt 0.562500 0.785000
vt 0.593750 0.715000
vt 0.593750 0.785000
vt 0.625000 0.715000
vt 0.625000 0.785000
vt 0.656250 0.715000
vt 0.656250 0.785000
vt 0.687500 0.715000
vt 0.687500 0.785000
vt 0.718750 0.715000
vt 0.718750 0.785000
vt 0.750000 0.715000
vt 0.750000 0.785000
vt 0.781250 0.715000
vt 0.781250 0.785000
vt 0.812500 0.715000
vt 0.812500 0.785000
vt 0.843750 0.715000
vt 0.843750 0.785000
vt 0.875000 0.715000
vt 0.875000 0.785000
vt 0.906250 0.715000
vt 0.906250 0.785000
vt 0.000000 0.785000
vt 0.000000 0.715000
s 1
f 1/1/1 2/2/1 3/3/2 4/4/2
f 4/4/2 3/3/2 7/5/3 8/6/3
f 64/7/4 63/8/4 6/9/5 5/10/5
f 62/11/6 61/12/6 63/8/4 64/7/4
f 60/13/7 59/14/7 61/12/6 62/11/6
f 58/15/8 57/16/8 59/14/7 60/13/7
f 56/17/9 55/18/9 57/16/8 58/15/8
f 54/19/10 53/20/10 55/18/9 56/17/9
f 52/21/11 51/22/11 53/20/10 54/19/10
f 50/23/12 49/24/12 51/22/11 52/21/11
f 48/25/13 47/26/13 49/24/12 50/23/12
f 46/27/14 45/28/14 47/26/13 48/25/13
f 44/29/15 43/30/15 45/28/14 46/27/14
f 42/31/16 41/32/16 43/30/15 44/29/15
f 40/33/17 39/34/17 41/32/16 42/31/16
f 38/35/18 37/36/18 39/34/17 40/33/17
f 36/37/19 35/38/19 37/36/18 38/35/18
f 34/39/20 33/40/20 35/38/19 36/37/19
f 32/41/21 31/42/21 33/40/20 34/39/20
f 30/43/22 29/44/22 31/42/21 32/41/21
f 28/45/23 27/46/23 29/44/22 30/43/22
f 26/47/24 25/48/24 27/46/23 28/45/23
f 24/49/25 23/50/25 25/48/24 26/47/24
f 22/51/26 21/52/26 23/50/25 24/49/25
f 20/53/27 19/54/27 21/52/26 22/51/26
f 18/55/28 17/56/28 19/54/27 20/53/27
f 16/57/29 15/58/29 17/56/28 18/55/28
f 14/59/30 13/60/30 15/58/29 16/57/29
f 12/61/31 11/62/31 13/60/30 14/59/30
f 10/63/32 9/64/32 11/62/31 12/61/31
f 8/6/3 7/5/3 9/64/32 10/63/32
f 5/10/5 6/9/5 2/65/1 1/66/1
f 65/1/19 68/4/18 67/3/18 66/2/19
f 68/4/18 72/6/17 71/5/17 67/3/18
f 128/7/21 69/10/20 70/9/20 127/8/21
f 126/11/22 128/7/21 127/8/21 125/12/22
f 124/13/23 126/11/22 125/12/22 123/14/23
f 122/15/24 124/13/23 123/14/23 121/16/24
f 120/17/25 122/15/24 121/16/24 119/18/25
f 118/19/26 120/17/25 119/18/25 117/20/26
f 116/21/27 118/19/26 117/20/26 115/22/27
f 114/23/28 116/21/27 115/22/27 113/24/28
f 112/25/29 114/23/28 113/24/28 111/26/29
f 110/27/30 112/25/29 111/26/29 109/28/30
f 108/29/31 110/27/30 109/28/30 107/30/31
f 106/31/32 108/29/31 107/30/31 105/32/32
f 104/33/3 106/31/32 105/32/32 103/34/3
f 102/35/2 104/33/3 103/34/3 101/36/2
f 100/37/1 102/35/2 101/36/2 99/38/1
f 98/39/5 100/37/1 99/38/1 97/40/5
f 96/41/4 98/39/5 97/40/5 95/42/4
f 94/43/6 96/41/4 95/42/4 93/44/6
f 92/45/7 94/43/6 93/44/6 91/46/7
f 90/47/8 92/45/7 91/46/7 89/48/8
f 88/49/9 90/47/8 89/48/8 87/50/9
f 86/51/10 88/49/9 87/50/9 85/52/10
f 84/53/11 86/51/10 85/52/10 83/54/11
f 82/55/12 84/53/11 83/54/11 81/56/12
f 80/57/13 82/55/12 81/56/12 79/58/13
f 78/59/14 80/57/13 79/58/13 77/60/14
f 76/61/15 78/59/14 77/60/14 75/62/15
f 74/63/16 76/61/15 75/62/15 73/64/16
f 72/6/17 74/63/16 73/64/16 71/5/17
f 69/10/20 65/66/19 66/65/19 70/9/20
f 29/44/33 93/44/33 95/42/33 31/42/33
f 55/18/33 119/18/33 121/16/33 57/16/33
f 30/43/34 94/43/34 92/45/34 28/45/34
f 56/17/34 120/17/34 118/19/34 54/19/34
f 27/46/33 91/46/33 93/44/33 29/44/33
f 53/20/33 117/20/33 119/18/33 55/18/33
f 28/45/34 92/45/34 90/47/34 26/47/34
f 54/19/34 118/19/34 116/21/34 52/21/34
f 25/48/33 89/48/33 91/46/33 27/46/33
f 51/22/33 115/22/33 117/20/33 53/20/33
f 26/47/34 90/47/34 88/49/34 24/49/34
f 52/21/34 116/21/34 114/23/34 50/23/34
f 23/50/33 87/50/33 89/48/33 25/48/33
f 49/24/33 113/24/33 115/22/33 51/22/33
f 24/49/34 88/49/34 86/51/34 22/51/34
f 50/23/34 114/23/34 112/25/34 48/25/34
f 21/52/33 85/52/33 87/50/33 23/50/33
f 47/26/33 111/26/33 113/24/33 49/24/33
f 22/51/34 86/51/34 84/53/34 20/53/34
f 48/25/34 112/25/34 110/27/34 46/27/34
f 19/54/33 83/54/33 85/52/33 21/52/33
f 45/28/33 109/28/33 111/26/33 47/26/33
f 20/53/34 84/53/34 82/55/34 18/55/34
f 46/27/34 110/27/34 108/29/34 44/29/34
f 17/56/33 81/56/33 83/54/33 19/54/33
f 43/30/33 107/30/33 109/28/33 45/28/33
f 18/55/34 82/55/34 80/57/34 16/57/34
f 44/29/34 108/29/34 106/31/34 42/31/34
f 4/4/34 68/4/34 65/1/34 1/1/34
f 15/58/33 79/58/33 81/56/33 17/56/33
f 41/32/33 105/32/33 107/30/33 43/30/33
f 2/2/33 66/2/33 67/3/33 3/3/33
f 16/57/34 80/57/34 78/59/34 14/59/34
f 42/31/34 106/31/34 104/33/34 40/33/34
f 8/6/34 72/6/34 68/4/34 4/4/34
f 13/60/33 77/60/33 79/58/33 15/58/33
f 39/34/33 103/34/33 105/32/33 41/32/33
f 3/3/33 67/3/33 71/5/33 7/5/33
f 14/59/34 78/59/34 76/61/34 12/61/34
f 40/33/34 104/33/34 102/35/34 38/35/34
f 5/10/34 69/10/34 128/7/34 64/7/34
f 11/62/33 75/62/33 77/60/33 13/60/33
f 37/36/33 101/36/33 103/34/33 39/34/33
f 63/8/33 127/8/33 70/9/33 6/9/33
f 12/61/34 76/61/34 74/63/34 10/63/34
f 38/35/34 102/35/34 100/37/34 36/37/34
f 64/7/34 128/7/34 126/11/34 62/11/34
f 9/64/33 73/64/33 75/62/33 11/62/33
f 35/38/33 99/38/33 101/36/33 37/36/33
f 61/12/33 125/12/33 127/8/33 63/8/33
f 10/63/34 74/63/34 72/6/34 8/6/34
f 36/37/34 100/37/34 98/39/34 34/39/34
f 62/11/34 126/11/34 124/13/34 60/13/34
f 7/5/33 71/5/33 73/64/33 9/64/33
f 33/40/33 97/40/33 99/38/33 35/38/33
f 59/14/33 123/14/33 125/12/33 61/12/33
f 1/66/34 65/66/34 69/10/34 5/10/34
f 34/39/34 98/39/34 96/41/34 32/41/34
f 60/13/34 124/13/34 122/15/34 58/15/34
f 6/9/33 70/9/33 66/65/33 2/65/33
f 31/42/33 95/42/33 97/40/33 33/40/33
f 57/16/33 121/16/33 123/14/33 59/14/33
f 32/41/34 96/41/34 94/43/34 30/43/34
f 58/15/34 122/15/34 120/17/34 56/17/34
