# Blender 4.4.0
# www.blender.org
o Disc_CL
v 0.149250 -0.038307 -0.248750
v 0.149250 0.038303 -0.248750
v 0.198935 0.038303 -0.235457
v 0.198935 -0.038307 -0.235457
v 0.235457 0.038303 -0.198935
v 0.235457 -0.038307 -0.198935
v 0.248750 0.038303 -0.149250
v 0.248750 -0.038307 -0.149250
v 0.149250 0.038303 0.248750
v 0.149250 -0.038307 0.248750
v 0.198935 -0.038307 0.235457
v 0.198935 0.038303 0.235457
v 0.235457 -0.038307 0.198935
v 0.235457 0.038303 0.198935
v 0.248750 -0.038307 0.149250
v 0.248750 0.038303 0.149250
v -0.248750 0.038303 0.149250
v -0.248750 -0.038307 0.149250
v -0.235457 -0.038307 0.198935
v -0.235457 0.038303 0.198935
v -0.198935 -0.038307 0.235457
v -0.198935 0.038303 0.235457
v -0.149250 -0.038307 0.248750
v -0.149250 0.038303 0.248750
v -0.149250 0.038303 -0.248750
v -0.149250 -0.038307 -0.248750
v -0.198935 -0.038307 -0.235457
v -0.198935 0.038303 -0.235457
v -0.235457 -0.038307 -0.198935
v -0.235457 0.038303 -0.198935
v -0.248750 -0.038307 -0.149250
v -0.248750 0.038303 -0.149250
vn -0.8661 -0.0000 -0.4998
vn -0.9915 -0.0000 -0.1303
vn -0.4998 -0.0000 -0.8661
vn -0.1303 -0.0000 -0.9915
vn -0.4998 -0.0000 0.8661
vn -0.1303 -0.0000 0.9915
vn -0.8661 -0.0000 0.4998
vn -0.9915 -0.0000 0.1303
vn 0.8661 -0.0000 0.4998
vn 0.9915 -0.0000 0.1303
vn 0.4998 -0.0000 0.8661
vn 0.1303 -0.0000 0.9915
vn 0.8661 -0.0000 -0.4998
vn 0.9915 -0.0000 -0.1303
vn 0.4998 -0.0000 -0.8661
vn 0.1303 -0.0000 -0.9915
vn -0.0000 1.0000 -0.0000
vn -0.0000 -1.0000 -0.0000
vt 0.519247 0.724967
vt 0.480750 0.724967
vt 0.480750 0.700000
vt 0.519247 0.700000
vt 0.519247 0.775033
vt 0.480750 0.775033
vt 0.519247 0.800000
vt 0.480750 0.800000
vt 0.519247 0.474967
vt 0.480750 0.474967
vt 0.480750 0.450000
vt 0.519247 0.450000
vt 0.519247 0.525033
vt 0.480750 0.525033
vt 0.519247 0.550000
vt 0.480750 0.550000
vt 0.519247 0.224967
vt 0.480750 0.224967
vt 0.480750 0.200000
vt 0.519247 0.200000
vt 0.519247 0.275033
vt 0.480750 0.275033
vt 0.519247 0.300000
vt 0.480750 0.300000
vt 0.480750 0.025033
vt 0.519247 0.025033
vt 0.519247 0.050000
vt 0.480750 0.050000
vt 0.480750 0.000000
vt 0.519247 0.000000
vt 0.480750 0.950000
vt 0.519247 0.950000
vt 0.519247 1.000000
vt 0.480750 1.000000
s 1
f 30/1/1 29/2/1 31/3/2 32/4/2
f 28/5/3 27/6/3 29/2/1 30/1/1
f 25/7/4 26/8/4 27/6/3 28/5/3
f 22/9/5 21/10/5 23/11/6 24/12/6
f 20/13/7 19/14/7 21/10/5 22/9/5
f 17/15/8 18/16/8 19/14/7 20/13/7
f 14/17/9 13/18/9 15/19/10 16/20/10
f 12/21/11 11/22/11 13/18/9 14/17/9
f 9/23/12 10/24/12 11/22/11 12/21/11
f 6/25/13 5/26/13 7/27/14 8/28/14
f 4/29/15 3/30/15 5/26/13 6/25/13
f 1/31/16 2/32/16 3/33/15 4/34/15
f 10/24/12 9/23/12 24/12/6 23/11/6
f 8/28/14 7/27/14 16/20/10 15/19/10
f 18/16/8 17/15/8 32/4/2 31/3/2
f 26/8/4 25/7/4 2/32/16 1/31/16
s 0
f 30/1/17 32/4/17 17/15/17 20/13/17 22/9/17 24/12/17 9/23/17 12/21/17 14/17/17 16/20/17 7/27/17 5/26/17 3/33/17 2/32/17 25/7/17 28/5/17
f 29/2/18 27/6/18 26/8/18 1/31/18 4/34/18 6/25/18 8/28/18 15/19/18 13/18/18 11/22/18 10/24/18 23/11/18 21/10/18 19/14/18 18/16/18 31/3/18
