# Blender 4.4.0
# www.blender.org
o Ring_CL
v -0.250000 0.000000 0.000000
v -0.238284 0.028284 0.000000
v -0.210000 0.040000 0.000000
v -0.181716 0.028284 0.000000
v -0.170000 0.000000 0.000000
v -0.181716 -0.028284 0.000000
v -0.210000 -0.040000 0.000000
v -0.238284 -0.028284 0.000000
v -0.230970 0.000000 0.095671
v -0.220146 0.028284 0.091187
v -0.194015 0.040000 0.080364
v -0.167883 0.028284 0.069540
v -0.157060 0.000000 0.065056
v -0.167883 -0.028284 0.069540
v -0.194015 -0.040000 0.080364
v -0.220146 -0.028284 0.091187
v -0.176777 0.000000 0.176777
v -0.168492 0.028284 0.168492
v -0.148492 0.040000 0.148492
v -0.128492 0.028284 0.128492
v -0.120208 0.000000 0.120208
v -0.128492 -0.028284 0.128492
v -0.148492 -0.040000 0.148492
v -0.168492 -0.028284 0.168492
v -0.095671 0.000000 0.230970
v -0.091187 0.028284 0.220146
v -0.080364 0.040000 0.194015
v -0.069540 0.028284 0.167883
v -0.065056 0.000000 0.157059
v -0.069540 -0.028284 0.167883
v -0.080364 -0.040000 0.194015
v -0.091187 -0.028284 0.220146
v -0.000000 0.000000 0.250000
v -0.000000 0.028284 0.238284
v -0.000000 0.040000 0.210000
v -0.000000 0.028284 0.181716
v -0.000000 0.000000 0.170000
v -0.000000 -0.028284 0.181716
v -0.000000 -0.040000 0.210000
v -0.000000 -0.028284 0.238284
v 0.095671 0.000000 0.230970
v 0.091187 0.028284 0.220146
v 0.080364 0.040000 0.194015
v 0.069540 0.028284 0.167883
v 0.065056 0.000000 0.157060
v 0.069540 -0.028284 0.167883
v 0.080364 -0.040000 0.194015
v 0.091187 -0.028284 0.220146
v 0.176777 0.000000 0.176777
v 0.168492 0.028284 0.168492
v 0.148492 0.040000 0.148492
v 0.128492 0.028284 0.128492
v 0.120208 0.000000 0.120208
v 0.128492 -0.028284 0.128492
v 0.148492 -0.040000 0.148492
v 0.168492 -0.028284 0.168492
v 0.230970 0.000000 0.095671
v 0.220146 0.028284 0.091187
v 0.194015 0.040000 0.080364
v 0.167883 0.028284 0.069540
v 0.157060 0.000000 0.065056
v 0.167883 -0.028284 0.069540
v 0.194015 -0.040000 0.080364
v 0.220146 -0.028284 0.091187
v 0.250000 0.000000 0.000000
v 0.238284 0.028284 0.000000
v 0.210000 0.040000 0.000000
v 0.181716 0.028284 0.000000
v 0.170000 0.000000 0.000000
v 0.181716 -0.028284 0.000000
v 0.210000 -0.040000 0.000000
v 0.238284 -0.028284 0.000000
v 0.230970 0.000000 -0.095671
v 0.220146 0.028284 -0.091187
v 0.194015 0.040000 -0.080363
v 0.167883 0.028284 -0.069540
v 0.157060 0.000000 -0.065056
v 0.167883 -0.028284 -0.069540
v 0.194015 -0.040000 -0.080363
v 0.220146 -0.028284 -0.091187
v 0.176777 0.000000 -0.176777
v 0.168492 0.028284 -0.168492
v 0.148492 0.040000 -0.148492
v 0.128492 0.028284 -0.128492
v 0.120208 0.000000 -0.120208
v 0.128492 -0.028284 -0.128492
v 0.148492 -0.040000 -0.148492
v 0.168492 -0.028284 -0.168492
v 0.095671 0.000000 -0.230970
v 0.091187 0.028284 -0.220146
v 0.080364 0.040000 -0.194015
v 0.069540 0.028284 -0.167883
v 0.065056 0.000000 -0.157060
v 0.069540 -0.028284 -0.167883
v 0.080364 -0.040000 -0.194015
v 0.091187 -0.028284 -0.220146
v -0.000000 0.000000 -0.250000
v -0.000000 0.028284 -0.238284
v -0.000000 0.040000 -0.210000
v -0.000000 0.028284 -0.181716
v -0.000000 0.000000 -0.170000
v -0.000000 -0.028284 -0.181716
v -0.000000 -0.040000 -0.210000
v -0.000000 -0.028284 -0.238284
v -0.095671 0.000000 -0.230970
v -0.091187 0.028284 -0.220146
v -0.080364 0.040000 -0.194015
v -0.069540 0.028284 -0.167883
v -0.065056 0.000000 -0.157059
v -0.069540 -0.028284 -0.167883
v -0.080364 -0.040000 -0.194015
v -0.091187 -0.028284 -0.220146
v -0.176777 0.000000 -0.176777
v -0.168492 0.028284 -0.168493
v -0.148492 0.040000 -0.148493
v -0.128492 0.028284 -0.128492
v -0.120208 0.000000 -0.120208
v -0.128492 -0.028284 -0.128492
v -0.148492 -0.040000 -0.148493
v -0.168492 -0.028284 -0.168493
v -0.230970 0.000000 -0.095671
v -0.220146 0.028284 -0.091188
v -0.194015 0.040000 -0.080364
v -0.167883 0.028284 -0.069540
v -0.157059 0.000000 -0.065056
v -0.167883 -0.028284 -0.069540
v -0.194015 -0.040000 -0.080364
v -0.220146 -0.028284 -0.091188
vn -1.0000 -0.0000 -0.0000
vn -0.9239 -0.0000 0.3826
vn -0.6648 0.6945 0.2754
vn -0.7195 0.6945 -0.0000
vn -0.6647 0.6945 0.2753
vn -0.0258 0.9996 0.0107
vn -0.0279 0.9996 -0.0000
vn 0.6385 0.7227 -0.2645
vn 0.6912 0.7227 -0.0000
vn 0.6386 0.7227 -0.2645
vn 0.9239 -0.0000 -0.3827
vn 1.0000 -0.0000 -0.0000
vn 0.9239 -0.0000 -0.3826
vn 0.6386 -0.7227 -0.2645
vn 0.6912 -0.7227 -0.0000
vn -0.0258 -0.9996 0.0107
vn -0.0279 -0.9996 -0.0000
vn -0.6647 -0.6945 0.2753
vn -0.7195 -0.6945 0.0001
vn -0.7195 -0.6945 -0.0000
vn -0.6648 -0.6945 0.2753
vn -0.9239 -0.0000 0.3827
vn -0.7071 -0.0000 0.7071
vn -0.5088 0.6945 0.5088
vn -0.5088 0.6945 0.5087
vn -0.0198 0.9996 0.0197
vn -0.0197 0.9996 0.0197
vn 0.4887 0.7227 -0.4887
vn 0.4888 0.7227 -0.4887
vn 0.7071 -0.0000 -0.7071
vn 0.4887 -0.7227 -0.4888
vn 0.6385 -0.7227 -0.2645
vn 0.4887 -0.7227 -0.4887
vn -0.0197 -0.9996 0.0197
vn -0.0198 -0.9996 0.0197
vn -0.5087 -0.6945 0.5087
vn -0.6647 -0.6945 0.2754
vn -0.5088 -0.6945 0.5088
vn -0.3827 -0.0000 0.9239
vn -0.2753 0.6945 0.6648
vn -0.5087 0.6945 0.5087
vn -0.2754 0.6945 0.6647
vn -0.0107 0.9996 0.0258
vn -0.0197 0.9996 0.0198
vn 0.2645 0.7227 -0.6386
vn 0.2645 0.7227 -0.6385
vn 0.3827 -0.0000 -0.9239
vn 0.2645 -0.7227 -0.6386
vn 0.2645 -0.7227 -0.6385
vn -0.0107 -0.9996 0.0258
vn -0.0197 -0.9996 0.0198
vn -0.2753 -0.6945 0.6647
vn -0.5087 -0.6945 0.5088
vn -0.2754 -0.6945 0.6648
vn -0.0000 -0.0000 1.0000
vn -0.0000 0.6945 0.7195
vn -0.2753 0.6945 0.6647
vn -0.0001 0.6945 0.7195
vn -0.0000 0.9996 0.0279
vn -0.0000 0.7227 -0.6912
vn -0.0000 -0.0000 -1.0000
vn 0.3826 -0.0000 -0.9239
vn -0.0000 -0.7227 -0.6912
vn -0.0000 -0.9996 0.0279
vn -0.0000 -0.6945 0.7195
vn -0.3826 -0.0000 0.9239
vn 0.3827 -0.0000 0.9239
vn 0.2754 0.6945 0.6648
vn 0.2753 0.6945 0.6647
vn 0.0107 0.9996 0.0258
vn -0.2645 0.7227 -0.6385
vn -0.2645 0.7227 -0.6386
vn -0.3827 -0.0000 -0.9239
vn -0.3826 -0.0000 -0.9239
vn -0.2645 -0.7227 -0.6386
vn 0.0107 -0.9996 0.0258
vn 0.2753 -0.6945 0.6647
vn 0.0001 -0.6945 0.7195
vn 0.2753 -0.6945 0.6648
vn 0.7071 -0.0000 0.7071
vn 0.5088 0.6945 0.5088
vn 0.5087 0.6945 0.5088
vn 0.0197 0.9996 0.0198
vn 0.0197 0.9996 0.0197
vn -0.4887 0.7227 -0.4887
vn -0.4887 0.7227 -0.4888
vn -0.7071 -0.0000 -0.7071
vn -0.4888 -0.7227 -0.4887
vn -0.2645 -0.7227 -0.6385
vn -0.4887 -0.7227 -0.4887
vn 0.0197 -0.9996 0.0197
vn 0.0197 -0.9996 0.0198
vn 0.5087 -0.6945 0.5087
vn 0.2754 -0.6945 0.6647
vn 0.5088 -0.6945 0.5088
vn 0.9239 -0.0000 0.3827
vn 0.6648 0.6945 0.2753
vn 0.5087 0.6945 0.5087
vn 0.6647 0.6945 0.2754
vn 0.0258 0.9996 0.0107
vn 0.0198 0.9996 0.0197
vn -0.6386 0.7227 -0.2645
vn -0.6385 0.7227 -0.2645
vn -0.9239 -0.0000 -0.3827
vn -0.6386 -0.7227 -0.2645
vn -0.6385 -0.7227 -0.2645
vn 0.0258 -0.9996 0.0107
vn 0.0198 -0.9996 0.0197
vn 0.6647 -0.6945 0.2753
vn 0.5088 -0.6945 0.5087
vn 0.6648 -0.6945 0.2754
vn 0.7195 0.6945 -0.0000
vn 0.6647 0.6945 0.2753
vn 0.7195 0.6945 0.0001
vn 0.0279 0.9996 -0.0000
vn -0.6912 0.7227 -0.0000
vn -0.9239 -0.0000 -0.3826
vn -0.6912 -0.7227 -0.0000
vn 0.0279 -0.9996 -0.0000
vn 0.7195 -0.6945 -0.0000
vn 0.9239 -0.0000 0.3826
vn 0.6648 0.6945 -0.2754
vn 0.6647 0.6945 -0.2753
vn 0.0258 0.9996 -0.0107
vn -0.6385 0.7227 0.2645
vn -0.6386 0.7227 0.2645
vn -0.6386 -0.7227 0.2645
vn 0.0258 -0.9996 -0.0107
vn 0.6647 -0.6945 -0.2753
vn 0.7195 -0.6945 -0.0001
vn 0.6648 -0.6945 -0.2753
vn 0.5088 0.6945 -0.5088
vn 0.5088 0.6945 -0.5087
vn 0.0198 0.9996 -0.0197
vn 0.0197 0.9996 -0.0197
vn -0.4887 0.7227 0.4887
vn -0.4888 0.7227 0.4887
vn -0.4887 -0.7227 0.4888
vn -0.6385 -0.7227 0.2645
vn -0.4887 -0.7227 0.4887
vn 0.0197 -0.9996 -0.0197
vn 0.0198 -0.9996 -0.0197
vn 0.5087 -0.6945 -0.5087
vn 0.6647 -0.6945 -0.2754
vn 0.5088 -0.6945 -0.5088
vn 0.2753 0.6945 -0.6648
vn 0.5087 0.6945 -0.5087
vn 0.2754 0.6945 -0.6647
vn 0.0107 0.9996 -0.0258
vn 0.0197 0.9996 -0.0198
vn -0.2645 0.7227 0.6386
vn -0.2645 0.7227 0.6385
vn -0.2645 -0.7227 0.6386
vn -0.2645 -0.7227 0.6385
vn 0.0107 -0.9996 -0.0258
vn 0.0197 -0.9996 -0.0198
vn 0.2753 -0.6945 -0.6647
vn 0.5087 -0.6945 -0.5088
vn 0.2754 -0.6945 -0.6648
vn -0.0000 0.6945 -0.7195
vn 0.2753 0.6945 -0.6647
vn 0.0001 0.6945 -0.7195
vn -0.0000 0.9996 -0.0279
vn -0.0000 0.7227 0.6912
vn -0.0000 -0.7227 0.6912
vn -0.0000 -0.9996 -0.0279
vn -0.0000 -0.6945 -0.7195
vn -0.2754 0.6945 -0.6648
vn -0.2753 0.6945 -0.6647
vn -0.0107 0.9996 -0.0258
vn 0.2645 0.7227 0.6385
vn 0.2645 0.7227 0.6386
vn 0.3826 -0.0000 0.9239
vn 0.2645 -0.7227 0.6386
vn -0.0107 -0.9996 -0.0258
vn -0.2753 -0.6945 -0.6647
vn -0.0001 -0.6945 -0.7195
vn -0.2753 -0.6945 -0.6648
vn -0.5088 0.6945 -0.5088
vn -0.5087 0.6945 -0.5088
vn -0.0197 0.9996 -0.0198
vn -0.0197 0.9996 -0.0197
vn 0.4887 0.7227 0.4887
vn 0.4887 0.7227 0.4888
vn 0.4888 -0.7227 0.4887
vn 0.2645 -0.7227 0.6385
vn 0.4887 -0.7227 0.4887
vn -0.0197 -0.9996 -0.0197
vn -0.0197 -0.9996 -0.0198
vn -0.5087 -0.6945 -0.5087
vn -0.2754 -0.6945 -0.6647
vn -0.5088 -0.6945 -0.5088
vn -0.6648 0.6945 -0.2753
vn -0.5087 0.6945 -0.5087
vn -0.6647 0.6945 -0.2754
vn -0.0258 0.9996 -0.0107
vn -0.0198 0.9996 -0.0197
vn 0.6386 0.7227 0.2645
vn 0.6385 0.7227 0.2645
vn 0.6386 -0.7227 0.2645
vn 0.6385 -0.7227 0.2645
vn -0.0258 -0.9996 -0.0107
vn -0.0198 -0.9996 -0.0197
vn -0.6647 -0.6945 -0.2753
vn -0.5088 -0.6945 -0.5087
vn -0.6648 -0.6945 -0.2754
vn -0.6647 0.6945 -0.2753
vn -0.7195 0.6945 -0.0001
vt 0.500000 0.500000
vt 0.562500 0.500000
vt 0.562500 0.625000
vt 0.500000 0.625000
vt 0.562500 0.750000
vt 0.500000 0.750000
vt 0.562500 0.875000
vt 0.500000 0.875000
vt 0.562500 1.000000
vt 0.500000 1.000000
vt 0.500000 0.000000
vt 0.562500 0.000000
vt 0.562500 0.125000
vt 0.500000 0.125000
vt 0.562500 0.250000
vt 0.500000 0.250000
vt 0.562500 0.375000
vt 0.500000 0.375000
vt 0.625000 0.500000
vt 0.625000 0.625000
vt 0.625000 0.750000
vt 0.625000 0.875000
vt 0.625000 1.000000
vt 0.625000 0.000000
vt 0.625000 0.125000
vt 0.625000 0.250000
vt 0.625000 0.375000
vt 0.687500 0.500000
vt 0.687500 0.625000
vt 0.687500 0.750000
vt 0.687500 0.875000
vt 0.687500 1.000000
vt 0.687500 0.000000
vt 0.687500 0.125000
vt 0.687500 0.250000
vt 0.687500 0.375000
vt 0.750000 0.500000
vt 0.750000 0.625000
vt 0.750000 0.750000
vt 0.750000 0.875000
vt 0.750000 1.000000
vt 0.750000 0.000000
vt 0.750000 0.125000
vt 0.750000 0.250000
vt 0.750000 0.375000
vt 0.812500 0.500000
vt 0.812500 0.625000
vt 0.812500 0.750000
vt 0.812500 0.875000
vt 0.812500 1.000000
vt 0.812500 0.000000
vt 0.812500 0.125000
vt 0.812500 0.250000
vt 0.812500 0.375000
vt 0.875000 0.500000
vt 0.875000 0.625000
vt 0.875000 0.750000
vt 0.875000 0.875000
vt 0.875000 1.000000
vt 0.875000 0.000000
vt 0.875000 0.125000
vt 0.875000 0.250000
vt 0.875000 0.375000
vt 0.937500 0.500000
vt 0.937500 0.625000
vt 0.937500 0.750000
vt 0.937500 0.875000
vt 0.937500 1.000000
vt 0.937500 0.000000
vt 0.937500 0.125000
vt 0.937500 0.250000
vt 0.937500 0.375000
vt 1.000000 0.500000
vt 1.000000 0.625000
vt 1.000000 0.750000
vt 1.000000 0.875000
vt 1.000000 1.000000
vt 1.000000 0.000000
vt 1.000000 0.125000
vt 1.000000 0.250000
vt 1.000000 0.375000
vt 0.000000 0.500000
vt 0.062500 0.500000
vt 0.062500 0.625000
vt 0.000000 0.625000
vt 0.062500 0.750000
vt 0.000000 0.750000
vt 0.062500 0.875000
vt 0.000000 0.875000
vt 0.062500 1.000000
vt 0.000000 1.000000
vt 0.000000 0.000000
vt 0.062500 0.000000
vt 0.062500 0.125000
vt 0.000000 0.125000
vt 0.062500 0.250000
vt 0.000000 0.250000
vt 0.062500 0.375000
vt 0.000000 0.375000
vt 0.125000 0.500000
vt 0.125000 0.625000
vt 0.125000 0.750000
vt 0.125000 0.875000
vt 0.125000 1.000000
vt 0.125000 0.000000
vt 0.125000 0.125000
vt 0.125000 0.250000
vt 0.125000 0.375000
vt 0.187500 0.500000
vt 0.187500 0.625000
vt 0.187500 0.750000
vt 0.187500 0.875000
vt 0.187500 1.000000
vt 0.187500 0.000000
vt 0.187500 0.125000
vt 0.187500 0.250000
vt 0.187500 0.375000
vt 0.250000 0.500000
vt 0.250000 0.625000
vt 0.250000 0.750000
vt 0.250000 0.875000
vt 0.250000 1.000000
vt 0.250000 0.000000
vt 0.250000 0.125000
vt 0.250000 0.250000
vt 0.250000 0.375000
vt 0.312500 0.500000
vt 0.312500 0.625000
vt 0.312500 0.750000
vt 0.312500 0.875000
vt 0.312500 1.000000
vt 0.312500 0.000000
vt 0.312500 0.125000
vt 0.312500 0.250000
vt 0.312500 0.375000
vt 0.375000 0.500000
vt 0.375000 0.625000
vt 0.375000 0.750000
vt 0.375000 0.875000
vt 0.375000 1.000000
vt 0.375000 0.000000
vt 0.375000 0.125000
vt 0.375000 0.250000
vt 0.375000 0.375000
vt 0.437500 0.500000
vt 0.437500 0.625000
vt 0.437500 0.750000
vt 0.437500 0.875000
vt 0.437500 1.000000
vt 0.437500 0.000000
vt 0.437500 0.125000
vt 0.437500 0.250000
vt 0.437500 0.375000
s 0
f 1/1/1 9/2/2 10/3/3 2/4/4
f 2/4/4 10/3/5 11/5/6 3/6/7
f 3/6/7 11/5/6 12/7/8 4/8/9
f 4/8/9 12/7/10 13/9/11 5/10/12
f 5/11/12 13/12/13 14/13/14 6/14/15
f 6/14/15 14/13/14 15/15/16 7/16/17
f 7/16/17 15/15/16 16/17/18 8/18/19
f 8/18/20 16/17/21 9/2/22 1/1/1
f 9/2/22 17/19/23 18/20/24 10/3/3
f 10/3/5 18/20/25 19/21/26 11/5/6
f 11/5/6 19/21/27 20/22/28 12/7/8
f 12/7/10 20/22/29 21/23/30 13/9/11
f 13/12/11 21/24/30 22/25/31 14/13/32
f 14/13/14 22/25/33 23/26/34 15/15/16
f 15/15/16 23/26/35 24/27/36 16/17/37
f 16/17/21 24/27/38 17/19/23 9/2/22
f 17/19/23 25/28/39 26/29/40 18/20/24
f 18/20/41 26/29/42 27/30/43 19/21/44
f 19/21/27 27/30/43 28/31/45 20/22/28
f 20/22/29 28/31/46 29/32/47 21/23/30
f 21/24/30 29/33/47 30/34/48 22/25/31
f 22/25/33 30/34/49 31/35/50 23/26/34
f 23/26/51 31/35/50 32/36/52 24/27/53
f 24/27/38 32/36/54 25/28/39 17/19/23
f 25/28/39 33/37/55 34/38/56 26/29/40
f 26/29/57 34/38/58 35/39/59 27/30/43
f 27/30/43 35/39/59 36/40/60 28/31/45
f 28/31/45 36/40/60 37/41/61 29/32/62
f 29/33/47 37/42/61 38/43/63 30/34/48
f 30/34/49 38/43/63 39/44/64 31/35/50
f 31/35/50 39/44/64 40/45/65 32/36/52
f 32/36/54 40/45/65 33/37/55 25/28/66
f 33/37/55 41/46/67 42/47/68 34/38/56
f 34/38/56 42/47/69 43/48/70 35/39/59
f 35/39/59 43/48/70 44/49/71 36/40/60
f 36/40/60 44/49/72 45/50/73 37/41/61
f 37/42/61 45/51/74 46/52/75 38/43/63
f 38/43/63 46/52/75 47/53/76 39/44/64
f 39/44/64 47/53/76 48/54/77 40/45/78
f 40/45/65 48/54/79 41/46/67 33/37/55
f 41/46/67 49/55/80 50/56/81 42/47/68
f 42/47/69 50/56/82 51/57/83 43/48/70
f 43/48/70 51/57/84 52/58/85 44/49/71
f 44/49/72 52/58/86 53/59/87 45/50/73
f 45/51/73 53/60/87 54/61/88 46/52/89
f 46/52/75 54/61/90 55/62/91 47/53/76
f 47/53/76 55/62/92 56/63/93 48/54/94
f 48/54/79 56/63/95 49/55/80 41/46/67
f 49/55/80 57/64/96 58/65/97 50/56/81
f 50/56/98 58/65/99 59/66/100 51/57/101
f 51/57/84 59/66/100 60/67/102 52/58/85
f 52/58/86 60/67/103 61/68/104 53/59/87
f 53/60/87 61/69/104 62/70/105 54/61/88
f 54/61/90 62/70/106 63/71/107 55/62/91
f 55/62/108 63/71/107 64/72/109 56/63/110
f 56/63/95 64/72/111 57/64/96 49/55/80
f 57/64/96 65/73/12 66/74/112 58/65/97
f 58/65/113 66/74/114 67/75/115 59/66/100
f 59/66/100 67/75/115 68/76/116 60/67/102
f 60/67/102 68/76/116 69/77/1 61/68/117
f 61/69/104 69/78/1 70/79/118 62/70/105
f 62/70/106 70/79/118 71/80/119 63/71/107
f 63/71/107 71/80/119 72/81/120 64/72/109
f 64/72/111 72/81/120 65/73/12 57/64/121
f 65/82/12 73/83/13 74/84/122 66/85/112
f 66/85/112 74/84/123 75/86/124 67/87/115
f 67/87/115 75/86/124 76/88/125 68/89/116
f 68/89/116 76/88/126 77/90/22 69/91/1
f 69/92/1 77/93/2 78/94/127 70/95/118
f 70/95/118 78/94/127 79/96/128 71/97/119
f 71/97/119 79/96/128 80/98/129 72/99/130
f 72/99/120 80/98/131 73/83/11 65/82/12
f 73/83/11 81/100/30 82/101/132 74/84/122
f 74/84/123 82/101/133 83/102/134 75/86/124
f 75/86/124 83/102/135 84/103/136 76/88/125
f 76/88/126 84/103/137 85/104/23 77/90/22
f 77/93/22 85/105/23 86/106/138 78/94/139
f 78/94/127 86/106/140 87/107/141 79/96/128
f 79/96/128 87/107/142 88/108/143 80/98/144
f 80/98/131 88/108/145 81/100/30 73/83/11
f 81/100/30 89/109/47 90/110/146 82/101/132
f 82/101/147 90/110/148 91/111/149 83/102/150
f 83/102/135 91/111/149 92/112/151 84/103/136
f 84/103/137 92/112/152 93/113/39 85/104/23
f 85/105/23 93/114/39 94/115/153 86/106/138
f 86/106/140 94/115/154 95/116/155 87/107/141
f 87/107/156 95/116/155 96/117/157 88/108/158
f 88/108/145 96/117/159 89/109/47 81/100/30
f 89/109/47 97/118/61 98/119/160 90/110/146
f 90/110/161 98/119/162 99/120/163 91/111/149
f 91/111/149 99/120/163 100/121/164 92/112/151
f 92/112/151 100/121/164 101/122/55 93/113/66
f 93/114/39 101/123/55 102/124/165 94/115/153
f 94/115/154 102/124/165 103/125/166 95/116/155
f 95/116/155 103/125/166 104/126/167 96/117/157
f 96/117/159 104/126/167 97/118/61 89/109/47
f 97/118/61 105/127/74 106/128/168 98/119/160
f 98/119/160 106/128/169 107/129/170 99/120/163
f 99/120/163 107/129/170 108/130/171 100/121/164
f 100/121/164 108/130/172 109/131/67 101/122/55
f 101/123/55 109/132/173 110/133/174 102/124/165
f 102/124/165 110/133/174 111/134/175 103/125/166
f 103/125/166 111/134/175 112/135/176 104/126/177
f 104/126/167 112/135/178 105/127/73 97/118/61
f 105/127/73 113/136/87 114/137/179 106/128/168
f 106/128/169 114/137/180 115/138/181 107/129/170
f 107/129/170 115/138/182 116/139/183 108/130/171
f 108/130/172 116/139/184 117/140/80 109/131/67
f 109/132/67 117/141/80 118/142/185 110/133/186
f 110/133/174 118/142/187 119/143/188 111/134/175
f 111/134/175 119/143/189 120/144/190 112/135/191
f 112/135/178 120/144/192 113/136/87 105/127/73
f 113/136/87 121/145/104 122/146/193 114/137/179
f 114/137/194 122/146/195 123/147/196 115/138/197
f 115/138/182 123/147/196 124/148/198 116/139/183
f 116/139/184 124/148/199 125/149/96 117/140/80
f 117/141/80 125/150/96 126/151/200 118/142/185
f 118/142/187 126/151/201 127/152/202 119/143/188
f 119/143/203 127/152/202 128/153/204 120/144/205
f 120/144/192 128/153/206 121/145/104 113/136/87
f 121/145/104 1/1/1 2/4/4 122/146/193
f 122/146/207 2/4/208 3/6/7 123/147/196
f 123/147/196 3/6/7 4/8/9 124/148/198
f 124/148/198 4/8/9 5/10/12 125/149/121
f 125/150/96 5/11/12 6/14/15 126/151/200
f 126/151/201 6/14/15 7/16/17 127/152/202
f 127/152/202 7/16/17 8/18/20 128/153/204
f 128/153/206 8/18/20 1/1/1 121/145/117
