# Blender 4.4.0
# www.blender.org
o Bevel_CH
v 0.152000 0.152000 -0.237500
v 0.152000 0.237500 -0.152000
v 0.237500 0.152000 -0.152000
v 0.152000 0.212458 -0.212458
v 0.201363 0.201363 -0.201363
v 0.212458 0.212458 -0.152000
v 0.212458 0.152000 -0.212458
v 0.152000 0.237500 0.152000
v 0.152000 0.152000 0.237500
v 0.237500 0.152000 0.152000
v 0.152000 0.212458 0.212458
v 0.201363 0.201363 0.201363
v 0.212458 0.152000 0.212458
v 0.212458 0.212458 0.152000
v -0.152000 0.237500 -0.152000
v -0.152000 0.152000 -0.237500
v -0.237500 0.152000 -0.152000
v -0.152000 0.212458 -0.212458
v -0.201363 0.201363 -0.201363
v -0.212458 0.152000 -0.212458
v -0.212458 0.212458 -0.152000
v -0.152000 0.237500 0.152000
v -0.237500 0.152000 0.152000
v -0.152000 0.152000 0.237500
v -0.212458 0.212458 0.152000
v -0.201363 0.201363 0.201363
v -0.212458 0.152000 0.212458
v -0.152000 0.212458 0.212458
v -0.138064 0.138064 -0.248425
v 0.138064 0.138064 -0.248425
v -0.248425 0.138064 0.138064
v -0.248425 0.138064 -0.138064
v -0.138064 0.248425 0.138064
v 0.138064 0.248425 0.138064
v 0.138064 0.248425 -0.138064
v -0.138064 0.248425 -0.138064
v 0.248425 0.138064 -0.138064
v 0.248425 0.138064 0.138064
v 0.138064 0.138064 0.248425
v -0.138064 0.138064 0.248425
v 0.168936 0.168936 -0.237404
v 0.168528 0.199623 -0.223408
v 0.194325 0.194325 -0.218818
v 0.199623 0.168528 -0.223408
v 0.168936 0.237404 -0.168936
v 0.199623 0.223408 -0.168528
v 0.194325 0.218818 -0.194325
v 0.168528 0.223408 -0.199623
v 0.237404 0.168936 -0.168936
v 0.223408 0.168528 -0.199623
v 0.218818 0.194325 -0.194325
v 0.223408 0.199623 -0.168528
v 0.168936 0.237404 0.168936
v 0.168528 0.223408 0.199623
v 0.194325 0.218818 0.194325
v 0.199623 0.223408 0.168528
v 0.168936 0.168936 0.237404
v 0.199623 0.168528 0.223408
v 0.194325 0.194325 0.218818
v 0.168528 0.199623 0.223408
v 0.237404 0.168936 0.168936
v 0.223408 0.199623 0.168528
v 0.218818 0.194325 0.194325
v 0.223408 0.168528 0.199623
v -0.168936 0.237404 -0.168936
v -0.168528 0.223408 -0.199623
v -0.194325 0.218818 -0.194325
v -0.199623 0.223408 -0.168528
v -0.168936 0.168936 -0.237404
v -0.199623 0.168528 -0.223408
v -0.194325 0.194325 -0.218818
v -0.168528 0.199623 -0.223408
v -0.237404 0.168936 -0.168936
v -0.223408 0.199623 -0.168528
v -0.218818 0.194325 -0.194325
v -0.223408 0.168528 -0.199623
v -0.168936 0.237404 0.168936
v -0.199623 0.223408 0.168528
v -0.194325 0.218818 0.194325
v -0.168528 0.223408 0.199623
v -0.237404 0.168936 0.168936
v -0.223408 0.168528 0.199623
v -0.218818 0.194325 0.194325
v -0.223408 0.199623 0.168528
v -0.168936 0.168936 0.237404
v -0.168528 0.199623 0.223408
v -0.194325 0.194325 0.218818
v -0.199623 0.168528 0.223408
v 0.169056 0.138064 -0.242261
v 0.203764 0.138064 -0.227884
v 0.227884 0.138064 -0.203764
v 0.242261 0.138064 -0.169056
v 0.169056 0.242261 -0.138064
v 0.169056 0.242261 0.138064
v 0.203764 0.227884 0.138064
v 0.203764 0.227884 -0.138064
v 0.227884 0.203764 -0.138064
v 0.227884 0.203764 0.138064
v 0.242261 0.169056 0.138064
v 0.242261 0.169056 -0.138064
v 0.169056 0.138064 0.242261
v 0.203764 0.138064 0.227884
v 0.227884 0.138064 0.203764
v 0.242261 0.138064 0.169056
v 0.138064 0.242261 0.169056
v -0.138064 0.242261 0.169056
v -0.138064 0.227884 0.203764
v 0.138064 0.227884 0.203764
v 0.138064 0.203764 0.227884
v -0.138064 0.203764 0.227884
v -0.138064 0.169056 0.242261
v 0.138064 0.169056 0.242261
v -0.242261 0.138064 0.169056
v -0.227884 0.138064 0.203764
v -0.203764 0.138064 0.227884
v -0.169056 0.138064 0.242261
v -0.169056 0.242261 0.138064
v -0.169056 0.242261 -0.138064
v -0.203764 0.227884 -0.138064
v -0.203764 0.227884 0.138064
v -0.227884 0.203764 0.138064
v -0.227884 0.203764 -0.138064
v -0.242261 0.169056 -0.138064
v -0.242261 0.169056 0.138064
v -0.169056 0.138064 -0.242261
v -0.203764 0.138064 -0.227884
v -0.227884 0.138064 -0.203764
v -0.242261 0.138064 -0.169056
v -0.138064 0.242261 -0.169056
v 0.138064 0.242261 -0.169056
v 0.138064 0.227884 -0.203764
v -0.138064 0.227884 -0.203764
v -0.138064 0.203764 -0.227884
v 0.138064 0.203764 -0.227884
v 0.138064 0.169056 -0.242261
v -0.138064 0.169056 -0.242261
v 0.138064 0.000000 0.250000
v -0.138065 0.000000 0.250000
v 0.000000 0.000000 0.248425
v -0.250000 0.000000 0.138065
v -0.250000 0.000000 -0.138064
v -0.248425 0.000000 0.000000
v 0.250000 0.000000 -0.138064
v 0.250000 0.000000 0.138065
v 0.248425 0.000000 0.000000
v 0.212458 0.000000 0.212458
v 0.237500 0.000000 0.152000
v 0.237500 0.000000 -0.152000
v -0.212458 0.000000 -0.212458
v 0.212458 0.000000 -0.212458
v -0.203764 0.000000 -0.227884
v -0.169056 0.000000 -0.242261
v -0.152000 0.000000 -0.237500
v -0.138065 0.000000 -0.250000
v 0.152000 0.000000 -0.237500
v 0.227884 0.000000 0.203764
v 0.242261 0.000000 0.169056
v 0.242261 0.000000 -0.169056
v 0.227884 0.000000 -0.203764
v 0.203764 0.000000 -0.227884
v 0.000000 0.000000 -0.248425
v 0.138064 0.000000 -0.248425
v 0.169056 0.000000 -0.242261
v -0.152000 0.000000 0.237500
v 0.152000 0.000000 0.237500
v -0.212458 0.000000 0.212458
v -0.227884 0.000000 0.203764
v -0.242261 0.000000 0.169056
v -0.237500 0.000000 0.152000
v -0.237500 0.000000 -0.152000
v -0.203764 0.000000 0.227884
v -0.169056 0.000000 0.242261
v 0.169056 0.000000 0.242261
v 0.203764 0.000000 0.227884
v -0.242261 0.000000 -0.169056
v -0.227884 0.000000 -0.203764
vn -0.0000 1.0000 -0.0000
vn 0.3251 0.3251 -0.8881
vn 0.3251 0.8881 -0.3251
vn 0.8881 0.3251 -0.3251
vn 0.3251 0.8881 0.3251
vn 0.3251 0.3251 0.8881
vn 0.8881 0.3251 0.3251
vn -0.3251 0.8881 -0.3251
vn -0.3251 0.3251 -0.8881
vn -0.8881 0.3251 -0.3251
vn -0.3251 0.8881 0.3251
vn -0.8881 0.3251 0.3251
vn -0.3251 0.3251 0.8881
vn 0.3827 0.9239 -0.0000
vn 0.9239 0.3827 -0.0000
vn 0.3827 -0.0000 0.9239
vn 0.9239 -0.0000 0.3827
vn -0.0000 0.9239 0.3827
vn -0.0000 0.3827 0.9239
vn -0.9239 -0.0000 0.3827
vn -0.3827 -0.0000 0.9239
vn -0.3827 0.9239 -0.0000
vn -0.9239 0.3827 -0.0000
vn -0.3827 -0.0000 -0.9239
vn -0.9239 -0.0000 -0.3827
vn -0.0000 0.9239 -0.3827
vn -0.0000 0.3827 -0.9239
vn -0.0000 0.6170 -0.7870
vn 0.6170 -0.0000 -0.7870
vn -0.7870 0.6170 -0.0000
vn -0.7665 0.0042 -0.6422
vn -0.0000 0.7870 0.6170
vn 0.6170 0.7870 -0.0000
vn -0.0000 0.7870 -0.6170
vn -0.6170 0.7870 -0.0000
vn 0.7870 0.6170 -0.0000
vn 0.7665 0.0042 0.6422
vn -0.0000 0.6170 0.7870
vn -0.6422 0.0042 0.7665
vn -0.3273 0.3708 -0.8691
vn 0.2818 0.8278 -0.4851
vn 0.8278 0.2818 -0.4851
vn 0.3708 -0.3273 -0.8691
vn 0.3708 0.8691 0.3273
vn 0.8278 0.4851 -0.2818
vn 0.2818 0.4851 -0.8278
vn -0.3273 0.8691 -0.3708
vn 0.8691 -0.3273 -0.3708
vn 0.4851 0.2818 -0.8278
vn 0.4851 0.8278 -0.2818
vn 0.8691 0.3708 0.3273
vn -0.3273 0.8691 0.3708
vn 0.2818 0.4851 0.8278
vn 0.8278 0.4851 0.2818
vn 0.3708 0.8691 -0.3273
vn 0.3708 -0.3273 0.8691
vn 0.8278 0.2818 0.4851
vn 0.2818 0.8278 0.4851
vn -0.3273 0.3708 0.8691
vn 0.8691 0.3708 -0.3273
vn 0.4851 0.8278 0.2818
vn 0.4851 0.2818 0.8278
vn 0.8691 -0.3273 0.3708
vn 0.3273 0.8691 -0.3708
vn -0.2818 0.4851 -0.8278
vn -0.8278 0.4851 -0.2818
vn -0.3708 0.8691 0.3273
vn -0.3708 -0.3273 -0.8691
vn -0.8278 0.2818 -0.4851
vn -0.2818 0.8278 -0.4851
vn 0.3273 0.3708 -0.8691
vn -0.8691 0.3708 0.3273
vn -0.4851 0.8278 -0.2818
vn -0.4851 0.2818 -0.8278
vn -0.8691 -0.3273 -0.3708
vn -0.3708 0.8691 -0.3273
vn -0.8278 0.4851 0.2818
vn -0.2818 0.4851 0.8278
vn 0.3273 0.8691 0.3708
vn -0.8691 -0.3273 0.3708
vn -0.4851 0.2818 0.8278
vn -0.4851 0.8278 0.2818
vn -0.8691 0.3708 -0.3273
vn 0.3273 0.3708 0.8691
vn -0.2818 0.8278 0.4851
vn -0.8278 0.2818 0.4851
vn -0.3708 -0.3273 0.8691
vn 0.3012 0.6170 -0.7271
vn 0.8712 -0.0000 -0.4910
vn 0.7271 0.6170 -0.3012
vn 0.9632 -0.0000 0.2688
vn -0.2688 0.9632 -0.0000
vn 0.3012 0.7271 0.6170
vn 0.8712 0.4910 -0.0000
vn 0.3012 0.7271 -0.6170
vn 0.4910 0.8712 -0.0000
vn 0.7271 0.3012 0.6170
vn 0.9632 -0.2688 -0.0000
vn 0.7271 0.3012 -0.6170
vn -0.2688 -0.0000 0.9632
vn 0.3012 0.6170 0.7271
vn 0.4910 -0.0000 0.8712
vn 0.7271 0.6170 0.3012
vn -0.0000 0.9632 -0.2688
vn -0.6170 0.7271 0.3012
vn -0.0000 0.4910 0.8712
vn 0.6170 0.7271 0.3012
vn -0.0000 0.8712 0.4910
vn -0.6170 0.3012 0.7271
vn -0.0000 -0.2688 0.9632
vn 0.6170 0.3012 0.7271
vn -0.9632 -0.0000 -0.2688
vn -0.7271 0.6170 0.3012
vn -0.8712 -0.0000 0.4910
vn -0.3012 0.6170 0.7271
vn 0.2688 0.9632 -0.0000
vn -0.3012 0.7271 -0.6170
vn -0.8712 0.4910 -0.0000
vn -0.3012 0.7271 0.6170
vn -0.4910 0.8712 -0.0000
vn -0.7271 0.3012 -0.6170
vn -0.9632 -0.2688 -0.0000
vn -0.7271 0.3012 0.6170
vn 0.2688 -0.0000 -0.9632
vn -0.3012 0.6170 -0.7271
vn -0.4910 -0.0000 -0.8712
vn -0.7271 0.6170 -0.3012
vn -0.0000 0.9632 0.2688
vn 0.6170 0.7271 -0.3012
vn -0.0000 0.4910 -0.8712
vn -0.6170 0.7271 -0.3012
vn -0.0000 0.8712 -0.4910
vn 0.6170 0.3012 -0.7271
vn -0.0000 -0.2688 -0.9632
vn -0.6170 0.3012 -0.7271
vn -0.0000 0.0057 1.0000
vn 0.0029 0.0029 -1.0000
vn -1.0000 0.0057 -0.0000
vn 0.4910 -0.0000 -0.8712
vn 0.6422 0.0042 0.7665
vn 0.2688 -0.0000 0.9632
vn -0.7665 0.0042 0.6422
vn -0.8712 -0.0000 -0.4910
vn 0.7665 0.0042 -0.6422
vn 0.9632 -0.0000 -0.2688
vn -0.4910 -0.0000 0.8712
vn 0.9239 -0.0000 -0.3827
vn -0.0000 -1.0000 -0.0000
vn -0.6422 0.0042 -0.7665
vn 1.0000 0.0057 -0.0000
vn 0.8712 -0.0000 0.4910
vn 0.3827 -0.0000 -0.9239
vn -0.2688 -0.0000 -0.9632
vn -0.9632 -0.0000 0.2688
vt 0.677335 0.552335
vt 0.822666 0.552334
vt 0.822666 0.697666
vt 0.677335 0.697666
vt 0.590300 0.964052
vt 0.614618 0.962814
vt 0.613368 0.977496
vt 0.591473 0.985959
vt 0.840300 0.714052
vt 0.864618 0.712814
vt 0.863368 0.727496
vt 0.841473 0.735959
vt 0.589052 0.034700
vt 0.587814 0.010382
vt 0.602496 0.011632
vt 0.610959 0.033527
vt 0.839052 0.534700
vt 0.837814 0.510382
vt 0.852496 0.511632
vt 0.860959 0.533527
vt 0.589052 0.284700
vt 0.587814 0.260382
vt 0.602496 0.261632
vt 0.610959 0.283527
vt 0.590300 0.214052
vt 0.614618 0.212814
vt 0.613368 0.227496
vt 0.591473 0.235959
vt 0.659700 0.714884
vt 0.658527 0.738398
vt 0.636632 0.734744
vt 0.635382 0.715253
vt 0.590300 0.784284
vt 0.591473 0.759163
vt 0.613368 0.758008
vt 0.614618 0.782307
vt 0.590300 0.714884
vt 0.614618 0.715253
vt 0.613368 0.734744
vt 0.591473 0.738398
vt 0.659284 0.534700
vt 0.634163 0.533527
vt 0.633008 0.511632
vt 0.657307 0.510382
vt 0.589884 0.534700
vt 0.590253 0.510382
vt 0.609744 0.511632
vt 0.613398 0.533527
vt 0.589884 0.465300
vt 0.613398 0.466473
vt 0.609744 0.488368
vt 0.590253 0.489618
vt 0.839583 0.697666
vt 0.839583 0.552334
vt 0.865417 0.552334
vt 0.865417 0.697666
vt 0.615417 0.052334
vt 0.615417 0.197666
vt 0.589583 0.197666
vt 0.589583 0.052334
vt 0.572666 0.285417
vt 0.500000 0.285417
vt 0.500000 0.259583
vt 0.572666 0.259583
vt 0.572666 0.240417
vt 0.500000 0.240417
vt 0.500000 0.214583
vt 0.572666 0.214583
vt 0.822665 0.535417
vt 0.677335 0.535417
vt 0.677334 0.509583
vt 0.822666 0.509583
vt 0.615417 0.302334
vt 0.615417 0.447666
vt 0.589583 0.447666
vt 0.589583 0.302334
vt 0.572666 0.535417
vt 0.500000 0.535417
vt 0.500000 0.509583
vt 0.572666 0.509583
vt 0.572666 0.490417
vt 0.500000 0.490417
vt 0.500000 0.464583
vt 0.572666 0.464583
vt 0.660417 0.552334
vt 0.660417 0.697666
vt 0.634583 0.697666
vt 0.634583 0.552335
vt 0.615417 0.552334
vt 0.615417 0.697666
vt 0.589583 0.697666
vt 0.589583 0.552335
vt 0.572666 0.785417
vt 0.500000 0.785417
vt 0.500000 0.759583
vt 0.572666 0.759583
vt 0.572666 0.740417
vt 0.500000 0.740417
vt 0.500000 0.714583
vt 0.572666 0.714583
vt 0.677334 0.714583
vt 0.822666 0.714583
vt 0.822666 0.740417
vt 0.677334 0.740417
vt 0.615417 0.802334
vt 0.615417 0.947666
vt 0.589583 0.947665
vt 0.589583 0.802335
vt 0.580000 0.795000
vt 0.580000 0.955000
vt 0.572666 0.947666
vt 0.572666 0.802335
vt 0.500000 0.955000
vt 0.500000 0.947666
vt 0.580000 0.545000
vt 0.580000 0.705000
vt 0.572666 0.697666
vt 0.572666 0.552334
vt 0.500000 0.705000
vt 0.500000 0.697666
vt 0.670000 0.545000
vt 0.830000 0.545000
vt 0.830000 0.705000
vt 0.670000 0.705000
vt 0.580000 0.045000
vt 0.580000 0.205000
vt 0.572666 0.197666
vt 0.572666 0.052334
vt 0.500000 0.205000
vt 0.500000 0.197666
vt 0.580000 0.295000
vt 0.580000 0.455000
vt 0.572666 0.447666
vt 0.572666 0.302334
vt 0.500000 0.455000
vt 0.500000 0.447666
vt 0.625000 0.955000
vt 0.625000 0.980981
vt 0.580000 1.000000
vt 0.875000 0.705000
vt 0.875000 0.730981
vt 0.830000 0.750000
vt 0.580000 0.000000
vt 0.605981 0.000000
vt 0.625000 0.045000
vt 0.830000 0.500000
vt 0.855981 0.500000
vt 0.875000 0.545000
vt 0.580000 0.250000
vt 0.605981 0.250000
vt 0.625000 0.295000
vt 0.625000 0.205000
vt 0.625000 0.230981
vt 0.670000 0.750000
vt 0.625000 0.743660
vt 0.625000 0.705000
vt 0.580000 0.750000
vt 0.625000 0.795000
vt 0.625000 0.545000
vt 0.618660 0.500000
vt 0.670000 0.500000
vt 0.580000 0.500000
vt 0.625000 0.455000
vt 0.572666 0.990417
vt 0.572666 0.964583
vt 0.500000 1.000000
vt 0.500000 0.990417
vt 0.572666 0.035417
vt 0.572666 0.009583
vt 0.500000 0.045000
vt 0.500000 0.035417
vt 0.500000 0.295000
vt 0.500000 0.250000
vt 0.500000 0.545000
vt 0.500000 0.500000
vt 0.500000 0.795000
vt 0.500000 0.750000
vt 0.500000 0.375000
vt 0.500000 0.302334
vt 0.500000 0.875000
vt 0.500000 0.802335
vt 0.500000 0.625000
vt 0.500000 0.552335
vt 0.500000 0.009583
vt 0.500000 0.000000
vt 0.500000 0.052334
vt 0.625000 0.555968
vt 0.625000 0.625000
vt 0.624646 0.694032
vt 0.630969 0.701001
vt 0.628631 0.709528
vt 0.635948 0.726882
vt 0.643700 0.731230
vt 0.648085 0.738942
vt 0.665464 0.746130
vt 0.673988 0.743757
vt 0.680968 0.750000
vt 0.750000 0.750000
vt 0.819032 0.749563
vt 0.826001 0.744032
vt 0.834528 0.746369
vt 0.851882 0.739051
vt 0.856230 0.731300
vt 0.863942 0.726915
vt 0.871130 0.709535
vt 0.868757 0.701011
vt 0.875000 0.694032
vt 0.875000 0.625000
vt 0.875354 0.555968
vt 0.869031 0.548999
vt 0.871369 0.540472
vt 0.864051 0.523118
vt 0.856300 0.518770
vt 0.851915 0.511058
vt 0.834536 0.503870
vt 0.826012 0.506243
vt 0.819032 0.500000
vt 0.750000 0.500000
vt 0.680968 0.499646
vt 0.673999 0.505968
vt 0.665472 0.503630
vt 0.648118 0.510948
vt 0.643770 0.518700
vt 0.636058 0.523085
vt 0.628870 0.540465
vt 0.631243 0.548988
vt 0.500000 0.125000
vt 0.500000 0.964583
s 0
f 33/1/1 34/2/1 35/3/1 36/4/1
f 41/5/2 42/6/2 43/7/2 44/8/2
f 45/9/3 46/10/3 47/11/3 48/12/3
f 49/13/4 50/14/4 51/15/4 52/16/4
f 53/17/5 54/18/5 55/19/5 56/20/5
f 57/21/6 58/22/6 59/23/6 60/24/6
f 61/25/7 62/26/7 63/27/7 64/28/7
f 65/29/8 66/30/8 67/31/8 68/32/8
f 69/33/9 70/34/9 71/35/9 72/36/9
f 73/37/10 74/38/10 75/39/10 76/40/10
f 77/41/11 78/42/11 79/43/11 80/44/11
f 81/45/12 82/46/12 83/47/12 84/48/12
f 85/49/13 86/50/13 87/51/13 88/52/13
f 93/53/14 94/54/14 95/55/14 96/56/14
f 97/57/15 98/58/15 99/59/15 100/60/15
f 101/61/16 173/62/16 174/63/16 102/64/16
f 103/65/17 156/66/17 157/67/17 104/68/17
f 105/69/18 106/70/18 107/71/18 108/72/18
f 109/73/19 110/74/19 111/75/19 112/76/19
f 113/77/20 168/78/20 167/79/20 114/80/20
f 115/81/21 171/82/21 172/83/21 116/84/21
f 117/85/22 118/86/22 119/87/22 120/88/22
f 121/89/23 122/90/23 123/91/23 124/92/23
f 125/93/24 152/94/24 151/95/24 126/96/24
f 127/97/25 176/98/25 175/99/25 128/100/25
f 129/101/26 130/102/26 131/103/26 132/104/26
f 133/105/27 134/106/27 135/107/27 136/108/27
f 16/109/28 1/110/28 30/111/28 29/112/28
f 1/110/29 155/113/29 162/114/29 30/111/29
f 23/115/30 17/116/30 32/117/30 31/118/30
f 17/116/31 170/119/31 141/120/31 32/117/31
f 22/121/32 8/122/32 34/2/32 33/1/32
f 8/122/33 2/123/33 35/3/33 34/2/33
f 2/123/34 15/124/34 36/4/34 35/3/34
f 15/124/35 22/121/35 33/1/35 36/4/35
f 3/125/36 10/126/36 38/127/36 37/128/36
f 10/126/37 147/129/37 144/130/37 38/127/37
f 9/131/38 24/132/38 40/133/38 39/134/38
f 24/132/39 164/135/39 138/136/39 40/133/39
f 1/110/40 4/137/40 42/6/40 41/5/40
f 4/137/41 5/138/41 43/7/41 42/6/41
f 5/138/42 7/139/42 44/8/42 43/7/42
f 7/139/43 1/110/43 41/5/43 44/8/43
f 2/123/44 6/140/44 46/10/44 45/9/44
f 6/140/45 5/141/45 47/11/45 46/10/45
f 5/141/46 4/142/46 48/12/46 47/11/46
f 4/142/47 2/123/47 45/9/47 48/12/47
f 3/125/48 7/143/48 50/14/48 49/13/48
f 7/143/49 5/144/49 51/15/49 50/14/49
f 5/144/50 6/145/50 52/16/50 51/15/50
f 6/145/51 3/125/51 49/13/51 52/16/51
f 8/122/52 11/146/52 54/18/52 53/17/52
f 11/146/53 12/147/53 55/19/53 54/18/53
f 12/147/54 14/148/54 56/20/54 55/19/54
f 14/148/55 8/122/55 53/17/55 56/20/55
f 9/131/56 13/149/56 58/22/56 57/21/56
f 13/149/57 12/150/57 59/23/57 58/22/57
f 12/150/58 11/151/58 60/24/58 59/23/58
f 11/151/59 9/131/59 57/21/59 60/24/59
f 10/126/60 14/152/60 62/26/60 61/25/60
f 14/152/61 12/153/61 63/27/61 62/26/61
f 12/153/62 13/149/62 64/28/62 63/27/62
f 13/149/63 10/126/63 61/25/63 64/28/63
f 15/124/64 18/154/64 66/30/64 65/29/64
f 18/154/65 19/155/65 67/31/65 66/30/65
f 19/155/66 21/156/66 68/32/66 67/31/66
f 21/156/67 15/124/67 65/29/67 68/32/67
f 16/109/68 20/157/68 70/34/68 69/33/68
f 20/157/69 19/155/69 71/35/69 70/34/69
f 19/155/70 18/158/70 72/36/70 71/35/70
f 18/158/71 16/109/71 69/33/71 72/36/71
f 17/116/72 21/156/72 74/38/72 73/37/72
f 21/156/73 19/155/73 75/39/73 74/38/73
f 19/155/74 20/157/74 76/40/74 75/39/74
f 20/157/75 17/116/75 73/37/75 76/40/75
f 22/121/76 25/159/76 78/42/76 77/41/76
f 25/159/77 26/160/77 79/43/77 78/42/77
f 26/160/78 28/161/78 80/44/78 79/43/78
f 28/161/79 22/121/79 77/41/79 80/44/79
f 23/115/80 27/162/80 82/46/80 81/45/80
f 27/162/81 26/160/81 83/47/81 82/46/81
f 26/160/82 25/159/82 84/48/82 83/47/82
f 25/159/83 23/115/83 81/45/83 84/48/83
f 24/132/84 28/163/84 86/50/84 85/49/84
f 28/163/85 26/160/85 87/51/85 86/50/85
f 26/160/86 27/162/86 88/52/86 87/51/86
f 27/162/87 24/132/87 85/49/87 88/52/87
f 1/110/88 7/139/88 90/164/88 89/165/88
f 7/139/89 150/166/89 160/167/89 90/164/89
f 7/143/90 3/125/90 92/168/90 91/169/90
f 3/125/91 148/170/91 158/171/91 92/168/91
f 2/123/92 8/122/92 94/54/92 93/53/92
f 8/122/93 14/148/93 95/55/93 94/54/93
f 14/148/94 6/140/94 96/56/94 95/55/94
f 6/140/95 2/123/95 93/53/95 96/56/95
f 6/145/96 14/152/96 98/58/96 97/57/96
f 14/152/97 10/126/97 99/59/97 98/58/97
f 10/126/98 3/125/98 100/60/98 99/59/98
f 3/125/99 6/145/99 97/57/99 100/60/99
f 9/131/100 165/172/100 173/62/100 101/61/100
f 13/149/101 9/131/101 101/61/101 102/64/101
f 13/149/102 146/173/102 156/66/102 103/65/102
f 10/126/103 13/149/103 103/65/103 104/68/103
f 8/122/104 22/121/104 106/70/104 105/69/104
f 22/121/105 28/161/105 107/71/105 106/70/105
f 28/161/106 11/146/106 108/72/106 107/71/106
f 11/146/107 8/122/107 105/69/107 108/72/107
f 11/151/108 28/163/108 110/74/108 109/73/108
f 28/163/109 24/132/109 111/75/109 110/74/109
f 24/132/110 9/131/110 112/76/110 111/75/110
f 9/131/111 11/151/111 109/73/111 112/76/111
f 23/115/112 169/174/112 168/78/112 113/77/112
f 27/162/113 23/115/113 113/77/113 114/80/113
f 27/162/114 166/175/114 171/82/114 115/81/114
f 24/132/115 27/162/115 115/81/115 116/84/115
f 22/121/116 15/124/116 118/86/116 117/85/116
f 15/124/117 21/156/117 119/87/117 118/86/117
f 21/156/118 25/159/118 120/88/118 119/87/118
f 25/159/119 22/121/119 117/85/119 120/88/119
f 25/159/120 21/156/120 122/90/120 121/89/120
f 21/156/121 17/116/121 123/91/121 122/90/121
f 17/116/122 23/115/122 124/92/122 123/91/122
f 23/115/123 25/159/123 121/89/123 124/92/123
f 16/109/124 153/176/124 152/94/124 125/93/124
f 20/157/125 16/109/125 125/93/125 126/96/125
f 20/157/126 149/177/126 176/98/126 127/97/126
f 17/116/127 20/157/127 127/97/127 128/100/127
f 15/124/128 2/123/128 130/102/128 129/101/128
f 2/123/129 4/142/129 131/103/129 130/102/129
f 4/142/130 18/154/130 132/104/130 131/103/130
f 18/154/131 15/124/131 129/101/131 132/104/131
f 18/158/132 4/137/132 134/106/132 133/105/132
f 4/137/133 1/110/133 135/107/133 134/106/133
f 1/110/134 16/109/134 136/108/134 135/107/134
f 16/109/135 18/158/135 133/105/135 136/108/135
f 138/136/136 139/178/136 137/179/136 39/134/136 40/133/136
f 162/114/137 161/180/137 154/181/137 29/112/137 30/111/137
f 141/120/138 142/182/138 140/183/138 31/118/138 32/117/138
f 159/184/139 150/185/139 7/143/139 91/169/139
f 137/179/140 165/172/140 9/131/140 39/134/140
f 172/83/141 164/135/141 24/132/141 116/84/141
f 140/183/142 169/174/142 23/115/142 31/118/142
f 151/95/143 149/177/143 20/157/143 126/96/143
f 143/186/144 148/170/144 3/125/144 37/128/144
f 157/67/145 147/129/145 10/126/145 104/68/145
f 167/79/146 166/175/146 27/162/146 114/80/146
f 158/171/147 159/184/147 91/169/147 92/168/147
f 140/187/148 142/188/148 141/189/148 170/190/148 175/191/148 176/192/148 149/193/148 151/194/148 152/195/148 153/196/148 154/197/148 161/198/148 162/199/148 155/200/148 163/201/148 160/202/148 150/203/148 159/204/148 158/205/148 148/206/148 143/207/148 145/208/148 144/209/148 147/210/148 157/211/148 156/212/148 146/213/148 174/214/148 173/215/148 165/216/148 137/217/148 139/218/148 138/219/148 164/220/148 172/221/148 171/222/148 166/223/148 167/224/148 168/225/148 169/226/148
f 154/181/149 153/176/149 16/109/149 29/112/149
f 144/130/150 145/227/150 143/186/150 37/128/150 38/127/150
f 174/63/151 146/173/151 13/149/151 102/64/151
f 160/167/152 163/228/152 89/165/152 90/164/152
f 163/228/153 155/113/153 1/110/153 89/165/153
f 175/99/154 170/119/154 17/116/154 128/100/154
