# Blender 4.4.0
# www.blender.org
o Flatter_CH
v 0.213710 0.213710 -0.248500
v 0.213710 0.248500 -0.213710
v 0.248500 0.213710 -0.213710
v 0.213710 0.231082 -0.243852
v 0.231082 0.213710 -0.243852
v 0.230347 0.230347 -0.239337
v 0.231082 0.243852 -0.213710
v 0.213710 0.243852 -0.231082
v 0.230347 0.239337 -0.230347
v 0.243852 0.213710 -0.231082
v 0.243852 0.231082 -0.213710
v 0.239337 0.230347 -0.230347
v 0.213710 0.248500 0.213710
v 0.213710 0.213710 0.248500
v 0.248500 0.213710 0.213710
v 0.213710 0.243852 0.231082
v 0.231082 0.243852 0.213710
v 0.230347 0.239337 0.230347
v 0.231082 0.213710 0.243852
v 0.213710 0.231082 0.243852
v 0.230347 0.230347 0.239337
v 0.243852 0.231082 0.213710
v 0.243852 0.213710 0.231082
v 0.239337 0.230347 0.230347
v -0.213710 0.248500 -0.213710
v -0.213710 0.213710 -0.248500
v -0.248500 0.213710 -0.213710
v -0.213710 0.243852 -0.231082
v -0.231082 0.243852 -0.213710
v -0.230347 0.239337 -0.230347
v -0.231082 0.213710 -0.243852
v -0.213710 0.231082 -0.243852
v -0.230347 0.230347 -0.239337
v -0.243852 0.231082 -0.213710
v -0.243852 0.213710 -0.231082
v -0.239337 0.230347 -0.230347
v -0.213710 0.248500 0.213710
v -0.248500 0.213710 0.213710
v -0.213710 0.213710 0.248500
v -0.231082 0.243852 0.213710
v -0.213710 0.243852 0.231082
v -0.230347 0.239337 0.230347
v -0.243852 0.213710 0.231082
v -0.243852 0.231082 0.213710
v -0.239337 0.230347 0.230347
v -0.213710 0.231082 0.243852
v -0.231082 0.213710 0.243852
v -0.230347 0.230347 0.239337
v 0.213710 0.000000 -0.248500
v 0.231082 0.000000 -0.243852
v 0.243852 0.000000 -0.231082
v 0.248500 0.000000 -0.213710
v 0.213710 0.000000 0.248500
v 0.231082 0.000000 0.243852
v 0.243852 0.000000 0.231082
v 0.248500 0.000000 0.213710
v -0.248500 0.000000 0.213710
v -0.243852 0.000000 0.231082
v -0.231082 0.000000 0.243852
v -0.213710 0.000000 0.248500
v -0.213710 0.000000 -0.248500
v -0.231082 0.000000 -0.243852
v -0.243852 0.000000 -0.231082
v -0.248500 0.000000 -0.213710
vn -0.1303 -0.0000 -0.9915
vn -0.1296 0.1296 -0.9831
vn 0.1296 0.1296 -0.9831
vn 0.1303 -0.0000 -0.9915
vn -0.9915 -0.0000 0.1303
vn -0.9831 0.1296 0.1296
vn -0.9831 0.1296 -0.1296
vn -0.9915 -0.0000 -0.1303
vn -0.1296 0.9831 0.1296
vn 0.1296 0.9831 0.1296
vn 0.1296 0.9831 -0.1296
vn -0.1296 0.9831 -0.1296
vn 0.9915 -0.0000 -0.1303
vn 0.9831 0.1296 -0.1296
vn 0.9831 0.1296 0.1296
vn 0.9915 -0.0000 0.1303
vn 0.1303 -0.0000 0.9915
vn 0.1296 0.1296 0.9831
vn -0.1296 0.1296 0.9831
vn -0.1303 -0.0000 0.9915
vn 0.1216 0.4915 -0.8623
vn 0.4473 0.4473 -0.7744
vn 0.4915 0.1216 -0.8623
vn 0.1216 0.8623 -0.4915
vn 0.4473 0.7744 -0.4473
vn 0.4915 0.8623 -0.1216
vn 0.8623 0.4915 -0.1216
vn 0.7744 0.4473 -0.4473
vn 0.8623 0.1216 -0.4915
vn 0.1216 0.8623 0.4915
vn 0.4473 0.7744 0.4473
vn 0.4915 0.8623 0.1216
vn 0.1216 0.4915 0.8623
vn 0.4473 0.4473 0.7744
vn 0.4915 0.1216 0.8623
vn 0.8623 0.1216 0.4915
vn 0.7744 0.4473 0.4473
vn 0.8623 0.4915 0.1216
vn -0.1216 0.8623 -0.4915
vn -0.4473 0.7744 -0.4473
vn -0.4915 0.8623 -0.1216
vn -0.1216 0.4915 -0.8623
vn -0.4473 0.4473 -0.7744
vn -0.4915 0.1216 -0.8623
vn -0.8623 0.1216 -0.4915
vn -0.7744 0.4473 -0.4473
vn -0.8623 0.4915 -0.1216
vn -0.4915 0.8623 0.1216
vn -0.4473 0.7744 0.4473
vn -0.1216 0.8623 0.4915
vn -0.8623 0.4915 0.1216
vn -0.7744 0.4473 0.4473
vn -0.8623 0.1216 0.4915
vn -0.4915 0.1216 0.8623
vn -0.4473 0.4473 0.7744
vn -0.1216 0.4915 0.8623
vn 0.4998 -0.0000 -0.8661
vn 0.8661 -0.0000 -0.4998
vn -0.8661 -0.0000 -0.4998
vn -0.4998 -0.0000 -0.8661
vn -0.4998 -0.0000 0.8661
vn -0.8661 -0.0000 0.4998
vn 0.8661 -0.0000 0.4998
vn 0.4998 -0.0000 0.8661
vn -0.0000 -1.0000 -0.0000
vt 0.500000 0.767500
vt 0.607500 0.767500
vt 0.607500 0.982500
vt 0.500000 0.982500
vt 0.500000 0.517500
vt 0.607500 0.517500
vt 0.607500 0.732500
vt 0.500000 0.732500
vt 0.642500 0.517500
vt 0.857500 0.517500
vt 0.857500 0.732500
vt 0.642500 0.732500
vt 0.500000 0.017500
vt 0.607500 0.017500
vt 0.607500 0.232500
vt 0.500000 0.232500
vt 0.500000 0.267500
vt 0.607500 0.267500
vt 0.607500 0.482500
vt 0.500000 0.482500
vt 0.616239 0.982500
vt 0.615869 1.000000
vt 0.607500 1.000000
vt 0.625000 0.982500
vt 0.625000 1.000000
vt 0.875000 0.732500
vt 0.875000 0.740869
vt 0.857500 0.750000
vt 0.625000 0.017500
vt 0.616239 0.017500
vt 0.615869 0.009131
vt 0.625000 0.009131
vt 0.607500 0.008761
vt 0.607500 0.000000
vt 0.615869 0.000000
vt 0.857500 0.500000
vt 0.875000 0.509131
vt 0.875000 0.517500
vt 0.625000 0.267500
vt 0.616239 0.267500
vt 0.615869 0.259131
vt 0.625000 0.250000
vt 0.607500 0.258761
vt 0.607500 0.241239
vt 0.615869 0.240869
vt 0.616239 0.232500
vt 0.625000 0.232500
vt 0.625000 0.240869
vt 0.615869 0.245391
vt 0.642500 0.750000
vt 0.634131 0.750000
vt 0.633762 0.732500
vt 0.625000 0.767500
vt 0.616239 0.767500
vt 0.615869 0.759131
vt 0.625000 0.759131
vt 0.607500 0.758761
vt 0.607500 0.741238
vt 0.615869 0.740869
vt 0.616239 0.732500
vt 0.615869 0.754609
vt 0.633762 0.517500
vt 0.634131 0.500000
vt 0.642500 0.500000
vt 0.616239 0.517500
vt 0.615869 0.509131
vt 0.607500 0.508761
vt 0.607500 0.491239
vt 0.615869 0.490869
vt 0.616239 0.482500
vt 0.625000 0.482500
vt 0.625000 0.490869
vt 0.615869 0.495391
vt 0.500000 1.000000
vt 0.500000 0.000000
vt 0.500000 0.008761
vt 0.500000 0.741238
vt 0.500000 0.758761
vt 0.500000 0.491239
vt 0.500000 0.508761
vt 0.500000 0.241239
vt 0.500000 0.258761
s 1
f 61/1/1 26/2/2 1/3/3 49/4/4
f 57/5/5 38/6/6 27/7/7 64/8/8
f 37/9/9 13/10/10 2/11/11 25/12/12
f 52/13/13 3/14/14 15/15/15 56/16/16
f 53/17/17 14/18/18 39/19/19 60/20/20
f 1/3/3 4/21/21 6/22/22 5/23/23
f 4/21/21 8/24/24 9/25/25 6/22/22
f 2/11/11 7/26/26 9/27/25 8/28/24
f 7/29/26 11/30/27 12/31/28 9/32/25
f 3/14/14 10/33/29 12/31/28 11/30/27
f 10/33/29 5/34/23 6/35/22 12/31/28
f 6/35/22 9/32/25 12/31/28
f 13/10/10 16/36/30 18/37/31 17/38/32
f 16/39/30 20/40/33 21/41/34 18/42/31
f 14/18/18 19/43/35 21/41/34 20/40/33
f 19/43/35 23/44/36 24/45/37 21/41/34
f 15/15/15 22/46/38 24/45/37 23/44/36
f 22/46/38 17/47/32 18/48/31 24/45/37
f 18/48/31 21/49/34 24/45/37
f 25/12/12 28/50/39 30/51/40 29/52/41
f 28/53/39 32/54/42 33/55/43 30/56/40
f 26/2/2 31/57/44 33/55/43 32/54/42
f 31/57/44 35/58/45 36/59/46 33/55/43
f 27/7/7 34/60/47 36/59/46 35/58/45
f 34/60/47 29/52/41 30/51/40 36/59/46
f 30/56/40 33/55/43 36/61/46
f 37/9/9 40/62/48 42/63/49 41/64/50
f 40/62/48 44/65/51 45/66/52 42/63/49
f 38/6/6 43/67/53 45/66/52 44/65/51
f 43/67/53 47/68/54 48/69/55 45/66/52
f 39/19/19 46/70/56 48/69/55 47/68/54
f 46/70/56 41/71/50 42/72/49 48/69/55
f 42/72/49 45/73/52 48/69/55
f 49/4/4 1/3/3 5/23/23 50/74/57
f 50/75/57 5/34/23 10/33/29 51/76/58
f 51/76/58 10/33/29 3/14/14 52/13/13
f 2/11/11 13/10/10 17/38/32 7/26/26
f 7/29/26 17/47/32 22/46/38 11/30/27
f 11/30/27 22/46/38 15/15/15 3/14/14
f 13/10/10 37/9/9 41/64/50 16/36/30
f 16/39/30 41/71/50 46/70/56 20/40/33
f 20/40/33 46/70/56 39/19/19 14/18/18
f 37/9/9 25/12/12 29/52/41 40/62/48
f 40/62/48 29/52/41 34/60/47 44/65/51
f 44/65/51 34/60/47 27/7/7 38/6/6
f 25/12/12 2/11/11 8/28/24 28/50/39
f 28/53/39 8/24/24 4/21/21 32/54/42
f 32/54/42 4/21/21 1/3/3 26/2/2
f 35/58/45 63/77/59 64/8/8 27/7/7
f 31/57/44 62/78/60 63/77/59 35/58/45
f 26/2/2 61/1/1 62/78/60 31/57/44
f 47/68/54 59/79/61 60/20/20 39/19/19
f 43/67/53 58/80/62 59/79/61 47/68/54
f 38/6/6 57/5/5 58/80/62 43/67/53
f 23/44/36 55/81/63 56/16/16 15/15/15
f 19/43/35 54/82/64 55/81/63 23/44/36
f 14/18/18 53/17/17 54/82/64 19/43/35
f 63/77/65 62/78/65 61/1/65 49/4/65 50/74/65 51/76/65 52/13/65 56/16/65 55/81/65 54/82/65 53/17/65 60/20/65 59/79/65 58/80/65 57/5/65 64/8/65
